ply
format ascii 1.0
comment Created by Blender 2.78 (sub 0) - www.blender.org, source file: ''
element vertex 507
property float x
property float y
property float z
element face 967
property list uchar uint vertex_indices
end_header
-1.468856 1.060561 -0.853201
-1.500106 0.912123 -0.782888
-1.562606 1.060561 -0.767263
-0.500106 0.912123 -0.782888
-0.531356 1.060561 -0.853201
-0.437606 1.060561 -0.767263
-1.546981 0.873061 -0.673513
-1.625106 1.060561 -0.657888
-0.453231 0.873061 -0.673513
-0.375106 1.060561 -0.657888
-1.351668 0.794936 -0.712576
-0.648543 0.794936 -0.712576
-1.437606 0.982436 -0.861013
-1.351668 0.849623 -0.814138
-0.648543 0.849623 -0.814138
-0.562606 0.982436 -0.861013
-1.351668 0.951186 -0.876638
-1.203231 0.912123 -0.837576
-0.796981 0.912123 -0.837576
-0.648543 0.951186 -0.876638
-1.156356 0.873061 -0.743826
-0.843856 0.873061 -0.743826
-1.140731 1.060561 -0.837576
-0.859481 1.060561 -0.837576
-0.921981 1.060561 -0.751638
-1.273543 0.982436 -0.892263
-0.726668 0.982436 -0.892263
-1.242293 1.060561 -0.892263
-1.203231 1.208998 -0.837576
-0.796981 1.208998 -0.837576
-0.757918 1.060561 -0.892263
-1.078231 1.060561 -0.751638
-0.843856 1.255873 -0.743826
-1.351668 1.271498 -0.814138
-1.156356 1.255873 -0.743826
-0.648543 1.271498 -0.814138
-0.648543 1.333998 -0.712576
-1.351668 1.177748 -0.876638
-1.273543 1.146498 -0.892263
-0.648543 1.177748 -0.876638
-1.437606 1.146498 -0.861013
-0.562606 1.146498 -0.861013
-0.500106 1.208998 -0.782888
-1.500106 1.208998 -0.782888
-1.351668 1.333998 -0.712576
-0.453231 1.255873 -0.673513
-1.546981 1.255873 -0.673513
-1.476668 1.060561 -0.868826
-0.523543 1.060561 -0.868826
-0.554793 1.154311 -0.876638
-1.445418 1.154311 -0.876638
-0.648543 1.193373 -0.900076
-1.351668 1.193373 -0.900076
-0.726668 1.146498 -0.892263
-0.734481 1.154311 -0.915701
-1.265731 1.154311 -0.915701
-0.773543 1.060561 -0.915701
-1.265731 0.974623 -0.915701
-1.226668 1.060561 -0.915701
-0.734481 0.974623 -0.915701
-1.351668 0.935561 -0.900076
-0.648543 0.935561 -0.900076
-1.445418 0.974623 -0.876638
-0.554793 0.974623 -0.876638
-1.351668 1.060561 -0.923513
-0.648543 1.060561 -0.923513
-1.164168 -0.111314 -0.728201
-1.000106 -0.166002 -0.673513
-1.179793 -0.150377 -0.650076
-0.836043 -0.111314 -0.728201
-1.000106 -0.126939 -0.736013
-1.234481 -0.095689 -0.728201
-1.328231 -0.126939 -0.618826
-0.765731 -0.095689 -0.728201
-0.820418 -0.150377 -0.650076
-1.367293 -0.072252 -0.626638
-0.632918 -0.072252 -0.626638
-0.671981 -0.126939 -0.618826
-1.351668 0.123061 -0.665701
-1.265731 -0.001939 -0.759451
-0.734481 -0.001939 -0.759451
-0.648543 0.123061 -0.665701
-1.312606 0.380873 -0.665701
-1.250106 0.115248 -0.782888
-0.750106 0.115248 -0.782888
-0.687606 0.380873 -0.665701
-1.203231 0.630873 -0.657888
-1.398543 0.771498 -0.767263
-1.125106 0.716811 -0.907888
-0.601668 0.771498 -0.767263
-0.796981 0.630873 -0.657888
-0.875106 0.716811 -0.907888
-1.632918 0.779311 -0.634451
-1.437606 0.677748 -0.626638
-0.367293 0.779311 -0.634451
-0.382918 0.873061 -0.720388
-1.726668 1.021498 -0.696951
-1.617293 0.873061 -0.720388
-0.273543 1.021498 -0.696951
-1.859481 1.248061 -0.689138
-1.828231 0.966811 -0.540701
-0.140731 1.248061 -0.689138
-0.257918 1.193373 -0.751638
-1.711043 1.302748 -0.720388
-1.742293 1.193373 -0.751638
-0.289168 1.302748 -0.720388
-0.312606 1.232436 -0.821951
-1.492293 1.419936 -0.782888
-1.687606 1.232436 -0.821951
-0.507918 1.419936 -0.782888
-0.562606 1.365248 -0.892263
-1.312606 1.458998 -0.931326
-1.437606 1.365248 -0.892263
-0.687606 1.458998 -0.931326
-1.156356 1.537123 -0.853201
-1.320418 1.576186 -0.829763
-0.843856 1.537123 -0.853201
-0.796981 1.435561 -0.946951
-1.062606 1.310561 -0.845388
-1.203231 1.435561 -0.946951
-0.937606 1.310561 -0.845388
-0.898543 1.248061 -0.939138
-1.000106 1.248061 -0.837576
-1.101668 1.248061 -0.939138
-1.000106 1.169936 -0.915701
-1.250106 1.287123 -0.853201
-1.164168 1.232436 -0.868826
-0.750106 1.287123 -0.853201
-1.328231 1.294936 -0.837576
-1.429793 1.255873 -0.814138
-0.671981 1.294936 -0.837576
-1.601668 1.193373 -0.759451
-0.570418 1.255873 -0.814138
-1.640731 1.115248 -0.743826
-0.398543 1.193373 -0.759451
-1.625106 1.005873 -0.743826
-0.359481 1.115248 -0.743826
-1.492293 0.880873 -0.767263
-0.375106 1.005873 -0.743826
-1.375106 0.833998 -0.798513
-0.507918 0.880873 -0.767263
-1.203231 0.912123 -0.837576
-0.625106 0.833998 -0.798513
-1.000106 0.865248 -0.821951
-0.796981 0.912123 -0.837576
-1.125106 1.123061 -0.861013
-0.875106 1.123061 -0.861013
-1.000106 1.029311 -0.861013
-1.132918 1.029311 -0.853201
-0.867293 1.029311 -0.853201
-1.164168 0.958998 -0.845388
-0.836043 0.958998 -0.845388
-1.062606 -0.064439 -0.790701
-0.937606 -0.064439 -0.790701
-1.117293 -0.017564 -0.806326
-0.882918 -0.017564 -0.806326
-1.109481 0.099623 -0.829763
-1.211043 0.373061 -0.806326
-1.117293 0.130873 -0.829763
-0.882918 0.130873 -0.829763
-0.789168 0.373061 -0.806326
-0.890731 0.099623 -0.829763
-1.000106 0.490248 -0.837576
-1.078231 0.373061 -0.845388
-1.086043 0.529311 -0.837576
-0.921981 0.373061 -0.845388
-1.000106 0.373061 -0.845388
-1.000106 0.138686 -0.829763
-1.000106 0.052748 -0.829763
-1.125106 0.591811 -0.845388
-1.093856 0.544936 -0.876638
-0.906356 0.544936 -0.876638
-0.875106 0.591811 -0.845388
-0.914168 0.529311 -0.837576
-1.101668 0.669936 -0.837576
-1.132918 0.591811 -0.892263
-0.867293 0.591811 -0.892263
-0.898543 0.669936 -0.837576
-1.039168 0.693373 -0.876638
-1.000106 0.677748 -0.837576
-0.961043 0.693373 -0.876638
-0.890731 0.685561 -0.876638
-1.000106 0.630873 -0.892263
-1.000106 0.623061 -0.845388
-1.000106 0.498061 -0.876638
-1.000106 0.529311 -0.900076
-0.921981 0.568373 -0.900076
-1.046981 0.669936 -0.907888
-0.953231 0.669936 -0.907888
-1.093856 0.662123 -0.907888
-1.109481 0.685561 -0.876638
-0.906356 0.662123 -0.907888
-0.890731 0.591811 -0.923513
-1.078231 0.568373 -0.900076
-1.109481 0.591811 -0.923513
-1.000106 0.615248 -0.923513
-1.164168 0.576186 -0.806326
-0.836043 0.576186 -0.806326
-0.820418 0.505873 -0.806326
-1.179793 0.505873 -0.806326
-1.257918 0.505873 -0.650076
-0.742293 0.505873 -0.650076
-1.234481 0.568373 -0.650076
-0.765731 0.568373 -0.650076
-1.093856 0.076186 -0.821951
-0.906356 0.076186 -0.821951
-1.000106 0.044936 -0.814138
-1.093856 -0.001939 -0.806326
-0.906356 -0.001939 -0.806326
-1.046981 -0.048814 -0.782888
-0.953231 -0.048814 -0.782888
-1.000106 -0.072252 -0.782888
-1.000106 -0.056627 -0.782888
-1.000106 -0.041002 -0.728201
-0.953231 -0.033189 -0.728201
-1.093856 0.005873 -0.736013
-1.046981 -0.033189 -0.728201
-0.906356 0.005873 -0.736013
-1.093856 0.068373 -0.759451
-0.906356 0.068373 -0.759451
-1.000106 0.037123 -0.751638
-1.187606 0.974623 -0.868826
-1.171981 1.037123 -0.876638
-0.812606 0.974623 -0.868826
-0.828231 1.037123 -0.876638
-1.179793 1.115248 -0.876638
-0.820418 1.115248 -0.876638
-1.211043 1.193373 -0.876638
-0.789168 1.193373 -0.876638
-0.773543 0.927748 -0.876638
-1.375106 0.880873 -0.837576
-1.226668 0.927748 -0.876638
-0.625106 0.880873 -0.837576
-1.476668 0.919936 -0.814138
-0.523543 0.919936 -0.814138
-1.578231 1.013686 -0.775076
-0.421981 1.013686 -0.775076
-1.586043 1.107436 -0.782888
-0.414168 1.107436 -0.782888
-0.437606 1.169936 -0.790701
-1.562606 1.169936 -0.790701
-0.578231 1.216811 -0.868826
-1.336043 1.248061 -0.853201
-1.421981 1.216811 -0.868826
-0.664168 1.248061 -0.853201
-1.273543 1.240248 -0.868826
-0.726668 1.240248 -0.868826
-1.281356 1.216811 -0.861013
-0.718856 1.216811 -0.861013
-0.765731 1.177748 -0.853201
-1.336043 1.224623 -0.845388
-0.664168 1.224623 -0.845388
-1.414168 1.208998 -0.845388
-0.586043 1.208998 -0.845388
-1.531356 1.154311 -0.775076
-0.468856 1.154311 -0.775076
-1.554793 1.099623 -0.767263
-0.445418 1.099623 -0.767263
-1.546981 1.029311 -0.767263
-0.453231 1.029311 -0.767263
-1.461043 0.935561 -0.798513
-0.539168 0.935561 -0.798513
-1.375106 0.904311 -0.821951
-0.625106 0.904311 -0.821951
-1.242293 0.943373 -0.853201
-0.757918 0.943373 -0.853201
-1.203231 0.990248 -0.845388
-0.796981 0.990248 -0.845388
-1.195418 1.115248 -0.853201
-1.234481 1.177748 -0.853201
-0.804793 1.115248 -0.853201
-1.195418 1.044936 -0.845388
-0.804793 1.044936 -0.845388
-1.109481 1.279311 -0.704763
-1.000106 1.224623 -0.696951
-0.890731 1.279311 -0.704763
-1.195418 1.482436 -0.712576
-0.804793 1.482436 -0.712576
-0.679793 1.576186 -0.829763
-0.664168 1.505873 -0.689138
-1.336043 1.505873 -0.689138
-0.515731 1.373061 -0.650076
-1.484481 1.373061 -0.650076
-0.320418 1.271498 -0.587576
-1.796981 1.224623 -0.556326
-1.679793 1.271498 -0.587576
-0.203231 1.224623 -0.556326
-0.171981 0.966811 -0.540701
-0.226668 0.982436 -0.470388
-1.601668 0.818373 -0.509451
-1.773543 0.982436 -0.470388
-0.398543 0.818373 -0.509451
-1.437606 0.724623 -0.564138
-0.562606 0.724623 -0.564138
-1.000106 0.333998 -0.376638
-1.125106 0.279311 -0.454763
-1.000106 0.248061 -0.415701
-0.875106 0.279311 -0.454763
-0.820418 0.404311 -0.353201
-1.140731 0.060561 -0.462576
-1.000106 0.013686 -0.439138
-0.859481 0.060561 -0.462576
-1.164168 -0.126939 -0.532888
-1.000106 -0.158189 -0.556326
-0.836043 -0.126939 -0.532888
-1.328231 -0.095689 -0.493826
-0.671981 -0.095689 -0.493826
-1.289168 0.107436 -0.478201
-0.711043 0.107436 -0.478201
-1.250106 0.318373 -0.486013
-0.750106 0.318373 -0.486013
-1.179793 0.404311 -0.353201
-1.234481 0.466811 -0.501638
-0.765731 0.466811 -0.501638
-1.218856 0.537123 -0.525076
-0.781356 0.537123 -0.525076
-0.789168 0.591811 -0.564138
-1.203231 0.646498 -0.595388
-0.796981 0.646498 -0.595388
-0.562606 0.677748 -0.626638
-1.336043 0.873061 0.568674
-1.000106 0.623061 0.576487
-1.000106 0.888686 0.732737
-0.664168 0.873061 0.568674
-0.656356 0.669936 0.443674
-1.343856 0.669936 0.443674
-1.000106 0.435561 0.256174
-0.703231 0.505873 0.170237
-1.211043 0.427748 -0.259451
-1.000106 0.357436 -0.282888
-0.789168 0.427748 -0.259451
-1.734481 0.771498 -0.165701
-1.851668 1.052748 -0.150076
-0.265731 0.771498 -0.165701
-0.148543 1.052748 -0.150076
-1.461043 1.255873 0.607737
-1.000106 1.380873 0.756174
-0.539168 1.255873 0.607737
-1.453231 1.669936 -0.329763
-1.000106 1.802748 -0.017263
-1.000106 1.716811 -0.384451
-0.546981 1.669936 -0.329763
-0.546981 1.748061 -0.025076
-1.453231 1.685561 0.287424
-1.000106 1.716811 0.451487
-0.546981 1.685561 0.287424
-1.726668 1.224623 -0.431326
-1.632918 1.271498 -0.376638
-0.273543 1.224623 -0.431326
-0.367293 1.271498 -0.376638
-1.796981 1.380873 -0.220388
-1.640731 1.521498 -0.150076
-0.203231 1.380873 -0.220388
-0.359481 1.521498 -0.150076
-1.796981 1.435561 0.021799
-1.640731 1.568373 0.099924
-0.203231 1.435561 0.021799
-0.359481 1.568373 0.099924
-1.796981 1.357436 0.263987
-1.640731 1.498061 0.349924
-0.203231 1.357436 0.263987
-0.359481 1.498061 0.349924
-1.617293 1.146498 0.490549
-1.773543 1.083998 0.342112
-0.382918 1.146498 0.490549
-1.453231 1.748061 -0.025076
-1.461043 1.341811 -0.525076
-0.539168 1.341811 -0.525076
-1.000106 1.388686 -0.665701
-1.859481 1.138686 -0.048513
-0.140731 1.138686 -0.048513
-1.820418 1.146498 0.107737
-0.179793 1.146498 0.107737
-1.296981 0.505873 0.170237
-1.406356 0.646498 -0.243826
-0.593856 0.646498 -0.243826
-0.570418 0.623061 0.115549
-1.593856 0.693373 0.068674
-0.406356 0.693373 0.068674
-1.211043 0.591811 -0.564138
-1.640731 0.810561 0.334299
-0.359481 0.810561 0.334299
-0.515731 0.841811 0.451487
-1.429793 0.623061 0.115549
-1.484481 0.841811 0.451487
-1.890731 1.224623 0.138987
-2.015730 1.232436 0.193674
-2.023543 1.294936 0.217112
-0.109481 1.224623 0.138987
0.015519 1.232436 0.193674
-0.078231 1.177748 0.123362
-2.187605 1.255873 0.295237
-2.234480 1.326186 0.326487
0.187394 1.255873 0.295237
0.023332 1.294936 0.217112
0.234269 1.326186 0.326487
-2.351668 1.138686 0.326487
0.351457 1.138686 0.326487
0.265519 1.107436 0.310862
-2.265730 1.107436 0.310862
-2.281355 0.873061 0.334299
0.281144 0.873061 0.334299
0.210832 0.896498 0.310862
-2.211043 0.896498 0.310862
-2.039168 0.716811 0.232737
0.038957 0.716811 0.232737
0.031144 0.779311 0.209299
-1.828231 0.748061 0.037424
-1.773543 0.677748 0.029612
-0.171981 0.748061 0.037424
-0.226668 0.677748 0.029612
-2.031355 0.779311 0.209299
-1.882918 0.794936 0.115549
-0.117293 0.794936 0.115549
-2.039168 0.818373 0.271799
0.038957 0.818373 0.271799
-2.234480 1.068373 0.349924
0.234269 1.068373 0.349924
0.187394 0.912123 0.349924
-2.171980 1.177748 0.342112
0.171769 1.177748 0.342112
-2.023543 1.162123 0.263987
0.023332 1.162123 0.263987
-1.945418 1.123061 0.193674
-0.054793 1.123061 0.193674
-1.726668 0.818373 -0.025076
-0.273543 0.818373 -0.025076
-0.281356 0.794936 0.076487
-1.718856 0.794936 0.076487
-1.921981 1.177748 0.123362
-1.812606 0.802748 0.178049
-0.187606 0.802748 0.178049
-1.718856 0.857436 0.092112
-1.843856 0.833998 0.178049
-0.281356 0.857436 0.092112
-1.757918 0.912123 0.178049
-1.820418 0.904311 0.178049
-0.156356 0.833998 0.178049
-0.242293 0.912123 0.178049
-0.179793 0.904311 0.178049
-1.796981 1.021498 0.115549
-1.836043 0.990248 0.178049
-0.203231 1.021498 0.115549
-1.890731 1.060561 0.170237
-1.843856 1.107436 0.115549
-0.109481 1.060561 0.170237
-0.164168 0.990248 0.178049
-0.156356 1.107436 0.115549
-1.890731 1.052748 0.224924
-1.953231 1.107436 0.248362
-0.109481 1.052748 0.224924
-0.046981 1.107436 0.248362
-0.156356 0.990248 0.224924
-1.765731 0.912123 0.224924
-1.843856 0.990248 0.224924
-0.234481 0.912123 0.224924
-0.171981 0.896498 0.224924
-1.828231 0.896498 0.224924
-0.148543 0.833998 0.224924
-1.812606 0.802748 0.224924
-1.851668 0.833998 0.224924
-0.187606 0.802748 0.224924
-1.882918 0.802748 0.170237
-0.117293 0.802748 0.170237
-2.039168 1.146498 0.318674
0.038957 1.146498 0.318674
-2.187605 1.162123 0.388987
0.187394 1.162123 0.388987
-2.257918 1.060561 0.396799
0.257707 1.060561 0.396799
-2.211043 0.904311 0.388987
-2.187605 0.912123 0.349924
0.210832 0.904311 0.388987
-2.046980 0.818373 0.326487
0.046769 0.818373 0.326487
-1.890731 0.927748 0.232737
-0.109481 0.927748 0.232737
-0.062606 0.880873 0.240549
-1.937606 0.880873 0.240549
-1.961043 0.990248 0.256174
-0.039168 0.990248 0.256174
-0.000106 0.943373 0.271799
-2.054793 1.005873 0.287424
-2.015730 1.052748 0.279612
0.054582 1.005873 0.287424
0.015519 1.052748 0.279612
-2.086043 1.091811 0.295237
0.085832 1.091811 0.295237
0.109269 1.029311 0.295237
-2.109480 1.029311 0.295237
-1.789168 0.693373 0.232737
-2.039168 0.732436 0.396799
-0.211043 0.693373 0.232737
0.038957 0.732436 0.396799
-2.312605 0.873061 0.435862
0.312394 0.873061 0.435862
-2.367293 1.115248 0.404612
0.367082 1.115248 0.404612
-2.250105 1.287123 0.451487
0.249894 1.287123 0.451487
-2.023543 1.255873 0.388987
0.023332 1.255873 0.388987
-1.859481 1.201186 0.287424
-0.140731 1.201186 0.287424
-0.226668 1.083998 0.342112
-0.836043 1.232436 -0.868826
-2.000105 0.943373 0.271799
3 0 1 2
3 3 4 5
3 2 6 7
3 8 5 9
3 1 10 6
3 11 3 8
3 12 13 1
3 14 15 3
3 16 17 13
3 18 19 14
3 13 20 10
3 21 14 11
3 22 20 17
3 23 21 24
3 25 22 17
3 23 26 18
3 27 28 22
3 29 30 23
3 28 31 22
3 29 24 32
3 33 34 28
3 35 32 36
3 37 28 38
3 39 29 35
3 40 33 37
3 41 35 42
3 43 44 33
3 42 36 45
3 2 46 43
3 5 45 9
3 0 43 40
3 4 42 5
3 40 47 0
3 41 48 49
3 37 50 40
3 39 49 51
3 38 52 37
3 53 51 54
3 27 55 38
3 30 54 56
3 27 57 58
3 59 30 56
3 25 60 57
3 61 26 59
3 16 62 60
3 63 19 61
3 12 47 62
3 48 15 63
3 64 62 47
3 48 63 65
3 60 62 64
3 65 63 61
3 64 57 60
3 61 59 65
3 64 58 57
3 59 56 65
3 64 55 58
3 56 54 65
3 64 52 55
3 54 51 65
3 64 50 52
3 51 49 65
3 64 47 50
3 49 48 65
3 66 67 68
3 69 67 70
3 71 68 72
3 73 74 69
3 75 71 72
3 73 76 77
3 78 79 75
3 80 81 76
3 82 83 78
3 84 85 81
3 86 87 88
3 89 90 91
3 92 87 93
3 94 89 95
3 92 96 97
3 98 94 95
3 99 96 100
3 101 98 102
3 103 104 99
3 105 102 106
3 107 108 103
3 109 106 110
3 107 111 112
3 113 109 110
3 114 111 115
3 116 113 117
3 118 119 114
3 120 117 121
3 122 123 118
3 122 121 124
3 125 123 126
3 127 121 117
3 125 111 119
3 113 127 117
3 112 128 129
3 110 130 113
3 108 129 131
3 106 132 110
3 104 131 133
3 102 134 106
3 96 133 135
3 98 136 102
3 97 135 137
3 95 138 98
3 87 137 139
3 89 140 95
3 88 139 141
3 91 142 89
3 141 143 88
3 143 144 91
3 123 145 126
3 121 146 124
3 145 147 148
3 147 146 149
3 150 147 143
3 151 147 149
3 152 70 66
3 70 153 69
3 154 66 71
3 69 155 73
3 154 79 156
3 155 80 73
3 157 158 83
3 159 160 84
3 156 83 158
3 84 161 159
3 162 163 164
3 162 165 166
3 163 167 158
3 165 167 166
3 156 167 168
3 161 167 159
3 169 170 164
3 171 172 173
3 174 175 169
3 176 177 172
3 178 174 179
3 180 177 181
3 182 179 183
3 182 179 180
3 164 184 162
3 173 184 171
3 170 185 184
3 171 185 186
3 182 187 178
3 188 182 180
3 178 189 190
3 191 180 181
3 189 175 190
3 191 176 192
3 175 193 170
3 186 176 171
3 194 187 195
3 192 188 191
3 195 193 194
3 186 195 192
3 179 88 143
3 91 179 143
3 174 196 88
3 197 177 91
3 164 196 169
3 173 197 198
3 163 199 164
3 165 198 160
3 200 157 82
3 201 160 198
3 202 199 200
3 203 198 197
3 86 196 202
3 197 90 203
3 168 204 156
3 168 205 206
3 154 204 207
3 205 155 208
3 152 207 209
3 208 153 210
3 211 209 212
3 210 211 212
3 209 213 212
3 210 213 214
3 209 215 216
3 217 210 214
3 207 218 215
3 219 208 217
3 206 218 204
3 206 219 220
3 220 216 218
3 214 220 219
3 218 216 215
3 217 214 219
3 148 221 222
3 223 149 224
3 145 222 225
3 224 146 226
3 145 227 126
3 146 228 226
3 141 221 150
3 144 223 229
3 141 230 231
3 232 144 229
3 139 233 230
3 234 142 232
3 137 235 233
3 236 140 234
3 135 237 235
3 238 138 236
3 131 237 133
3 134 238 239
3 129 240 131
3 132 239 241
3 129 242 243
3 244 132 241
3 128 245 242
3 246 130 244
3 125 227 245
3 228 127 246
3 227 247 245
3 228 248 249
3 242 247 250
3 248 244 251
3 242 252 243
3 244 253 251
3 243 254 240
3 241 255 253
3 237 254 256
3 255 238 257
3 237 258 235
3 238 259 257
3 233 258 260
3 259 234 261
3 233 262 230
3 234 263 261
3 230 264 231
3 232 265 263
3 221 264 266
3 265 223 267
3 227 268 269
3 270 228 249
3 225 271 268
3 272 226 270
3 222 266 271
3 267 224 272
3 122 273 274
3 275 122 274
3 118 276 273
3 277 120 275
3 115 276 114
3 278 277 279
3 107 280 115
3 109 279 281
3 103 282 107
3 105 281 283
3 103 284 285
3 286 105 283
3 100 284 99
3 287 286 288
3 100 289 290
3 291 287 288
3 92 292 289
3 293 94 291
3 294 295 296
3 294 297 298
3 296 299 300
3 296 301 297
3 300 302 303
3 300 304 301
3 68 303 302
3 303 74 304
3 72 302 305
3 304 77 306
3 75 305 307
3 306 76 308
3 78 307 309
3 308 81 310
3 307 295 309
3 297 308 310
3 305 299 307
3 306 301 304
3 309 311 312
3 310 298 297
3 82 309 312
3 310 85 313
3 314 202 200
3 315 203 316
3 312 200 82
3 313 201 315
3 202 317 86
3 203 318 316
3 317 93 86
3 318 319 293
3 320 321 322
3 323 321 324
3 325 326 321
3 324 326 327
3 326 328 329
3 330 326 329
3 329 311 294
3 298 329 294
3 311 314 312
3 298 315 330
3 290 331 332
3 333 288 334
3 335 322 336
3 337 322 323
3 338 339 340
3 341 339 342
3 339 343 344
3 345 339 344
3 344 335 336
3 337 344 336
3 285 346 347
3 348 283 349
3 347 350 351
3 352 349 353
3 351 354 355
3 356 353 357
3 355 358 359
3 360 357 361
3 362 358 363
3 364 360 361
3 335 359 362
3 361 337 364
3 343 355 359
3 357 345 361
3 365 351 355
3 353 342 357
3 338 347 351
3 349 341 353
3 285 366 282
3 283 367 349
3 366 340 368
3 367 340 341
3 273 280 282
3 279 275 281
3 273 366 368
3 367 275 368
3 274 273 368
3 368 275 274
3 290 346 284
3 288 348 334
3 332 350 346
3 352 334 348
3 369 354 350
3 356 370 352
3 358 371 363
3 360 372 356
3 373 374 328
3 327 375 376
3 374 377 331
3 375 378 376
3 289 374 331
3 375 291 333
3 292 314 374
3 315 293 375
3 314 328 374
3 375 330 315
3 292 317 379
3 316 318 293
3 380 362 363
3 381 364 382
3 362 320 335
3 364 323 382
3 383 380 377
3 376 381 382
3 325 383 373
3 324 376 382
3 320 384 325
3 324 382 323
3 385 386 387
3 388 389 390
3 387 391 392
3 393 394 395
3 391 396 392
3 393 397 398
3 399 400 396
3 398 401 402
3 403 404 400
3 402 405 406
3 404 407 408
3 409 405 410
3 411 412 407
3 413 406 409
3 403 414 411
3 415 402 406
3 416 403 399
3 417 402 418
3 419 399 391
3 420 398 417
3 421 391 386
3 422 393 420
3 386 423 421
3 424 389 422
3 377 425 331
3 378 426 427
3 408 428 377
3 410 427 409
3 332 425 369
3 426 334 370
3 371 429 385
3 390 372 388
3 407 430 428
3 431 409 427
3 432 430 433
3 434 431 427
3 435 433 436
3 437 438 439
3 440 435 441
3 442 438 434
3 440 443 444
3 442 445 446
3 444 423 429
3 447 424 445
3 369 444 371
3 447 370 372
3 425 440 369
3 426 442 434
3 425 428 432
3 434 427 426
3 423 448 449
3 450 424 451
3 441 448 443
3 446 450 452
3 441 453 454
3 455 446 452
3 436 453 435
3 439 455 456
3 433 457 436
3 437 456 458
3 433 459 460
3 461 437 458
3 430 462 459
3 463 431 461
3 421 449 464
3 451 422 465
3 419 464 466
3 465 420 467
3 416 466 468
3 467 417 469
3 416 470 471
3 417 472 469
3 471 473 414
3 418 474 472
3 414 462 412
3 415 463 474
3 460 475 457
3 458 476 477
3 478 479 475
3 477 480 481
3 479 482 483
3 484 480 485
3 482 486 483
3 484 487 488
3 464 483 486
3 485 465 487
3 479 449 448
3 480 451 485
3 454 479 448
3 452 480 476
3 457 454 453
3 452 456 455
3 462 460 459
3 463 458 477
3 473 478 462
3 477 474 463
3 482 473 470
3 484 474 481
3 489 470 468
3 488 472 484
3 466 489 468
3 488 467 469
3 464 486 466
3 467 487 465
3 404 490 491
3 492 405 493
3 400 491 494
3 493 401 495
3 400 496 396
3 401 497 495
3 396 498 392
3 397 499 497
3 392 500 387
3 395 501 499
3 387 502 385
3 394 503 501
3 491 502 500
3 493 503 492
3 500 494 491
3 495 501 493
3 498 496 494
3 495 497 499
3 371 502 363
3 372 503 388
3 363 490 380
3 492 504 381
3 377 490 408
3 492 378 410
3 0 12 1
3 3 15 4
3 2 1 6
3 8 3 5
3 1 13 10
3 11 14 3
3 12 16 13
3 14 19 15
3 16 25 17
3 18 26 19
3 13 17 20
3 21 18 14
3 22 31 20
3 23 18 21
3 25 27 22
3 23 30 26
3 27 38 28
3 29 53 30
3 28 34 31
3 29 23 24
3 33 44 34
3 35 29 32
3 37 33 28
3 39 53 29
3 40 43 33
3 41 39 35
3 43 46 44
3 42 35 36
3 2 7 46
3 5 42 45
3 0 2 43
3 4 41 42
3 40 50 47
3 41 4 48
3 37 52 50
3 39 41 49
3 38 55 52
3 53 39 51
3 27 58 55
3 30 53 54
3 27 25 57
3 59 26 30
3 25 16 60
3 61 19 26
3 16 12 62
3 63 15 19
3 12 0 47
3 48 4 15
3 66 70 67
3 69 74 67
3 71 66 68
3 73 77 74
3 75 79 71
3 73 80 76
3 78 83 79
3 80 84 81
3 82 157 83
3 84 160 85
3 86 93 87
3 89 319 90
3 92 97 87
3 94 319 89
3 92 100 96
3 98 287 94
3 99 104 96
3 101 287 98
3 103 108 104
3 105 101 102
3 107 112 108
3 109 105 106
3 107 115 111
3 113 278 109
3 114 119 111
3 116 278 113
3 118 123 119
3 120 116 117
3 122 124 123
3 122 120 121
3 125 119 123
3 127 505 121
3 125 128 111
3 113 130 127
3 112 111 128
3 110 132 130
3 108 112 129
3 106 134 132
3 104 108 131
3 102 136 134
3 96 104 133
3 98 138 136
3 97 96 135
3 95 140 138
3 87 97 137
3 89 142 140
3 88 87 139
3 91 144 142
3 141 150 143
3 143 151 144
3 123 124 145
3 121 505 146
3 145 124 147
3 147 124 146
3 150 148 147
3 151 143 147
3 152 211 70
3 70 211 153
3 154 152 66
3 69 153 155
3 154 71 79
3 155 161 80
3 157 163 158
3 159 165 160
3 156 79 83
3 84 80 161
3 162 166 163
3 162 173 165
3 163 166 167
3 165 159 167
3 156 158 167
3 161 168 167
3 169 175 170
3 171 176 172
3 174 190 175
3 176 181 177
3 178 190 174
3 180 179 177
3 182 178 179
3 164 170 184
3 173 162 184
3 170 193 185
3 171 184 185
3 182 195 187
3 188 195 182
3 178 187 189
3 191 188 180
3 189 194 175
3 191 181 176
3 175 194 193
3 186 192 176
3 194 189 187
3 192 195 188
3 195 185 193
3 186 185 195
3 179 174 88
3 91 177 179
3 174 169 196
3 197 172 177
3 164 199 196
3 173 172 197
3 163 157 199
3 165 173 198
3 200 199 157
3 201 85 160
3 202 196 199
3 203 201 198
3 86 88 196
3 197 91 90
3 168 206 204
3 168 161 205
3 154 156 204
3 205 161 155
3 152 154 207
3 208 155 153
3 211 152 209
3 210 153 211
3 209 216 213
3 210 212 213
3 209 207 215
3 217 208 210
3 207 204 218
3 219 205 208
3 206 220 218
3 206 205 219
3 220 213 216
3 214 213 220
3 148 150 221
3 223 151 149
3 145 148 222
3 224 149 146
3 145 225 227
3 146 505 228
3 141 231 221
3 144 151 223
3 141 139 230
3 232 142 144
3 139 137 233
3 234 140 142
3 137 135 235
3 236 138 140
3 135 133 237
3 238 136 138
3 131 240 237
3 134 136 238
3 129 243 240
3 132 134 239
3 129 128 242
3 244 130 132
3 128 125 245
3 246 127 130
3 125 126 227
3 228 505 127
3 227 269 247
3 228 246 248
3 242 245 247
3 248 246 244
3 242 250 252
3 244 241 253
3 243 252 254
3 241 239 255
3 237 240 254
3 255 239 238
3 237 256 258
3 238 236 259
3 233 235 258
3 259 236 234
3 233 260 262
3 234 232 263
3 230 262 264
3 232 229 265
3 221 231 264
3 265 229 223
3 227 225 268
3 270 226 228
3 225 222 271
3 272 224 226
3 222 221 266
3 267 223 224
3 122 118 273
3 275 120 122
3 118 114 276
3 277 116 120
3 115 280 276
3 278 116 277
3 107 282 280
3 109 278 279
3 103 285 282
3 105 109 281
3 103 99 284
3 286 101 105
3 100 290 284
3 287 101 286
3 100 92 289
3 291 94 287
3 92 93 292
3 293 319 94
3 294 311 295
3 294 296 297
3 296 295 299
3 296 300 301
3 300 299 302
3 300 303 304
3 68 67 303
3 303 67 74
3 72 68 302
3 304 74 77
3 75 72 305
3 306 77 76
3 78 75 307
3 308 76 81
3 307 299 295
3 297 301 308
3 305 302 299
3 306 308 301
3 309 295 311
3 310 313 298
3 82 78 309
3 310 81 85
3 314 379 202
3 315 201 203
3 312 314 200
3 313 85 201
3 202 379 317
3 203 90 318
3 317 292 93
3 318 90 319
3 320 325 321
3 323 322 321
3 325 373 326
3 324 321 326
3 326 373 328
3 330 327 326
3 329 328 311
3 298 330 329
3 311 328 314
3 298 313 315
3 290 289 331
3 333 291 288
3 335 320 322
3 337 336 322
3 338 365 339
3 341 340 339
3 339 365 343
3 345 342 339
3 344 343 335
3 337 345 344
3 285 284 346
3 348 286 283
3 347 346 350
3 352 348 349
3 351 350 354
3 356 352 353
3 355 354 358
3 360 356 357
3 362 359 358
3 364 504 360
3 335 343 359
3 361 345 337
3 343 365 355
3 357 342 345
3 365 338 351
3 353 341 342
3 338 366 347
3 349 367 341
3 285 347 366
3 283 281 367
3 366 338 340
3 367 368 340
3 273 276 280
3 279 277 275
3 273 282 366
3 367 281 275
3 290 332 346
3 288 286 348
3 332 369 350
3 352 370 334
3 369 371 354
3 356 372 370
3 358 354 371
3 360 504 372
3 373 383 374
3 327 330 375
3 374 383 377
3 375 333 378
3 289 292 374
3 375 293 291
3 292 379 314
3 315 316 293
3 380 384 362
3 381 504 364
3 362 384 320
3 364 337 323
3 383 384 380
3 376 378 381
3 325 384 383
3 324 327 376
3 385 429 386
3 388 394 389
3 387 386 391
3 393 389 394
3 391 399 396
3 393 395 397
3 399 403 400
3 398 397 401
3 403 411 404
3 402 401 405
3 404 411 407
3 409 406 405
3 411 414 412
3 413 415 406
3 403 471 414
3 415 418 402
3 416 471 403
3 417 398 402
3 419 416 399
3 420 393 398
3 421 419 391
3 422 389 393
3 386 429 423
3 424 390 389
3 377 428 425
3 378 333 426
3 408 407 428
3 410 378 427
3 332 331 425
3 426 333 334
3 371 444 429
3 390 447 372
3 407 412 430
3 431 413 409
3 432 428 430
3 434 437 431
3 435 432 433
3 437 434 438
3 440 432 435
3 442 446 438
3 440 441 443
3 442 447 445
3 444 443 423
3 447 390 424
3 369 440 444
3 447 442 370
3 425 432 440
3 426 370 442
3 423 443 448
3 450 445 424
3 441 454 448
3 446 445 450
3 441 435 453
3 455 438 446
3 436 457 453
3 439 438 455
3 433 460 457
3 437 439 456
3 433 430 459
3 461 431 437
3 430 412 462
3 463 413 431
3 421 423 449
3 451 424 422
3 419 421 464
3 465 422 420
3 416 419 466
3 467 420 417
3 416 468 470
3 417 418 472
3 471 470 473
3 418 415 474
3 414 473 462
3 415 413 463
3 460 478 475
3 458 456 476
3 478 506 479
3 477 476 480
3 479 506 482
3 484 481 480
3 482 489 486
3 484 485 487
3 464 449 483
3 485 451 465
3 479 483 449
3 480 450 451
3 454 475 479
3 452 450 480
3 457 475 454
3 452 476 456
3 462 478 460
3 463 461 458
3 473 506 478
3 477 481 474
3 482 506 473
3 484 472 474
3 489 482 470
3 488 469 472
3 466 486 489
3 488 487 467
3 404 408 490
3 492 410 405
3 400 404 491
3 493 405 401
3 400 494 496
3 401 397 497
3 396 496 498
3 397 395 499
3 392 498 500
3 395 394 501
3 387 500 502
3 394 388 503
3 491 490 502
3 493 501 503
3 500 498 494
3 495 499 501
3 371 385 502
3 372 504 503
3 363 502 490
3 492 503 504
3 377 380 490
3 492 381 378
