ply
format ascii 1.0
comment Created by Blender 2.78 (sub 0) - www.blender.org, source file: ''
element vertex 509
property float x
property float y
property float z
property float s
property float t
element face 967
property list uchar uint vertex_indices
end_header
-0.468750 0.242188 -0.757812 0.090819 0.936935
-0.500000 0.093750 -0.687500 0.115051 0.911662
-0.562500 0.242188 -0.671875 0.115806 0.947895
0.500000 0.093750 -0.687500 0.203647 0.884644
0.468750 0.242188 -0.757812 0.201761 0.919606
0.562500 0.242188 -0.671875 0.176681 0.908858
-0.546875 0.054688 -0.578125 0.146460 0.905707
-0.625000 0.242188 -0.562500 0.144246 0.960496
0.546875 0.054688 -0.578125 0.186525 0.857647
0.625000 0.242188 -0.562500 0.148045 0.896710
-0.351562 -0.023438 -0.617188 0.106947 0.861459
0.351562 -0.023438 -0.617188 0.245832 0.856246
-0.437500 0.164062 -0.765625 0.091072 0.920399
-0.351562 0.031250 -0.718750 0.089878 0.886429
0.351562 0.031250 -0.718750 0.239271 0.885773
0.437500 0.164062 -0.765625 0.213658 0.908119
-0.351562 0.132812 -0.781250 0.078717 0.907309
-0.203125 0.093750 -0.742188 0.055078 0.886160
0.203125 0.093750 -0.742188 0.263253 0.910992
0.351562 0.132812 -0.781250 0.231658 0.908191
-0.156250 0.054688 -0.648438 0.044982 0.856246
0.156250 0.054688 -0.648438 0.291990 0.897915
-0.140625 0.242188 -0.742188 0.027493 0.908386
0.140625 0.242188 -0.742188 0.265883 0.946319
0.078125 0.242188 -0.656250 0.291990 0.959378
-0.273438 0.164062 -0.796875 0.061973 0.907225
0.273438 0.164062 -0.796875 0.243164 0.920357
-0.242188 0.242188 -0.796875 0.048187 0.918085
-0.203125 0.390625 -0.742188 0.028591 0.944821
0.203125 0.390625 -0.742188 0.238537 0.970419
0.242188 0.242188 -0.796875 0.244659 0.937842
-0.078125 0.242188 -0.656250 0.000116 0.898256
0.156250 0.437500 -0.648438 0.245656 0.999884
-0.351562 0.453125 -0.718750 0.052964 0.970263
-0.156250 0.437500 -0.648438 0.002218 0.959762
0.351562 0.453125 -0.718750 0.203307 0.970018
0.351562 0.515625 -0.617188 0.186399 0.995242
-0.351562 0.359375 -0.781250 0.060124 0.949185
-0.273438 0.328125 -0.796875 0.048693 0.936749
0.351562 0.359375 -0.781250 0.213799 0.950385
-0.437500 0.328125 -0.765625 0.078118 0.949403
0.437500 0.328125 -0.765625 0.201341 0.937399
0.500000 0.390625 -0.687500 0.177972 0.945043
-0.500000 0.390625 -0.687500 0.088511 0.971685
-0.351562 0.515625 -0.617188 0.046108 0.999845
0.546875 0.437500 -0.578125 0.146693 0.952837
-0.546875 0.437500 -0.578125 0.104201 0.999845
-0.476562 0.242188 -0.773438 0.088201 0.935837
0.476562 0.242188 -0.773438 0.204352 0.920767
0.445312 0.335938 -0.781250 0.204845 0.936547
-0.445312 0.335938 -0.781250 0.076345 0.946263
0.351562 0.375000 -0.804688 0.216519 0.946042
-0.351562 0.375000 -0.804688 0.061435 0.944231
0.273438 0.328125 -0.796875 0.230690 0.950229
0.265625 0.335938 -0.820312 0.229292 0.945576
-0.265625 0.335938 -0.820312 0.053045 0.934588
0.226562 0.242188 -0.820312 0.238687 0.935511
-0.265625 0.156250 -0.820312 0.063207 0.911885
-0.226562 0.242188 -0.820312 0.053970 0.920851
0.265625 0.156250 -0.820312 0.238919 0.922640
-0.351562 0.117188 -0.804688 0.075963 0.911602
0.351562 0.117188 -0.804688 0.230407 0.913135
-0.445312 0.156250 -0.781250 0.087571 0.921266
0.445312 0.156250 -0.781250 0.215418 0.911267
-0.351562 0.242188 -0.828125 0.069273 0.927666
0.351562 0.242188 -0.828125 0.223253 0.928998
-0.164062 -0.929688 -0.632812 0.407694 0.509659
0.000000 -0.984375 -0.578125 0.408035 0.508175
-0.179688 -0.968750 -0.554688 0.408425 0.509596
0.164062 -0.929688 -0.632812 0.407360 0.506841
0.000000 -0.945312 -0.640625 0.407417 0.508249
-0.234375 -0.914062 -0.632812 0.407823 0.510259
-0.328125 -0.945312 -0.523438 0.408796 0.510531
0.234375 -0.914062 -0.632812 0.407347 0.506256
0.179688 -0.968750 -0.554688 0.408057 0.506729
-0.367188 -0.890625 -0.531250 0.408783 0.510993
0.367188 -0.890625 -0.531250 0.408045 0.505370
0.328125 -0.945312 -0.523438 0.408168 0.505780
-0.351562 -0.695312 -0.570312 0.408396 0.513063
-0.265625 -0.820312 -0.664062 0.407289 0.511078
0.265625 -0.820312 -0.664062 0.406690 0.505630
0.351562 -0.695312 -0.570312 0.407254 0.503691
-0.312500 -0.437500 -0.570312 0.407074 0.520851
-0.250000 -0.703125 -0.687500 0.406091 0.512167
0.250000 -0.703125 -0.687500 0.405428 0.504880
0.312500 -0.437500 -0.570312 0.405037 0.498252
-0.203125 -0.187500 -0.562500 0.400307 0.549972
-0.398438 -0.046875 -0.671875 0.382472 0.666358
-0.125000 -0.101562 -0.812500 0.348246 0.529083
0.398438 -0.046875 -0.671875 0.398031 0.466856
0.203125 -0.187500 -0.562500 0.400525 0.484946
0.125000 -0.101562 -0.812500 0.374290 0.481645
-0.632812 -0.039062 -0.539062 0.493581 0.602317
-0.437500 -0.140625 -0.531250 0.433893 0.587540
0.632812 -0.039062 -0.539062 0.413081 0.464187
0.617188 0.054688 -0.625000 0.410762 0.459216
-0.726562 0.203125 -0.601562 0.601135 0.583700
-0.617188 0.054688 -0.625000 0.532494 0.643758
0.726562 0.203125 -0.601562 0.416301 0.453712
-0.859375 0.429688 -0.593750 0.580550 0.503759
-0.828125 0.148438 -0.445312 0.538188 0.545193
0.859375 0.429688 -0.593750 0.422988 0.449838
0.742188 0.375000 -0.656250 0.419666 0.447785
-0.710938 0.484375 -0.625000 0.595517 0.469844
-0.742188 0.375000 -0.656250 0.622435 0.507983
0.710938 0.484375 -0.625000 0.423653 0.445308
0.687500 0.414062 -0.726562 0.419194 0.444289
-0.492188 0.601562 -0.687500 0.581952 0.389529
-0.687500 0.414062 -0.726562 0.641229 0.470565
0.492188 0.601562 -0.687500 0.424135 0.434215
0.437500 0.546875 -0.796875 0.417840 0.431865
-0.312500 0.640625 -0.835938 0.547401 0.320273
-0.437500 0.546875 -0.796875 0.612266 0.336548
0.312500 0.640625 -0.835938 0.419034 0.424932
-0.156250 0.718750 -0.757812 0.512381 0.349124
-0.320312 0.757812 -0.734375 0.534516 0.358350
0.156250 0.718750 -0.757812 0.424068 0.420466
0.203125 0.617188 -0.851562 0.418449 0.419902
-0.062500 0.492188 -0.750000 0.450560 0.351179
-0.203125 0.617188 -0.851562 0.511536 0.315201
0.062500 0.492188 -0.750000 0.424995 0.394849
0.101562 0.429688 -0.843750 0.403488 0.399981
0.000000 0.429688 -0.742188 0.427012 0.368497
-0.101562 0.429688 -0.843750 0.418261 0.301641
0.000000 0.351562 -0.820312 0.379069 0.362484
-0.250000 0.468750 -0.757812 0.531537 0.164548
-0.164062 0.414062 -0.773438 0.417469 0.208763
0.250000 0.468750 -0.757812 0.407212 0.423728
-0.328125 0.476562 -0.742188 0.624062 0.184574
-0.429688 0.437500 -0.718750 0.749448 0.282493
0.328125 0.476562 -0.742188 0.409719 0.429006
-0.601562 0.375000 -0.664062 0.720491 0.492557
0.429688 0.437500 -0.718750 0.411796 0.435646
-0.640625 0.296875 -0.648438 0.683832 0.564857
0.601562 0.375000 -0.664062 0.414832 0.444565
-0.625000 0.187500 -0.648438 0.629530 0.649887
0.640625 0.296875 -0.648438 0.414410 0.448558
-0.492188 0.062500 -0.671875 0.467970 0.721475
0.625000 0.187500 -0.648438 0.411651 0.453042
-0.375000 0.015625 -0.703125 0.339283 0.704043
0.492188 0.062500 -0.671875 0.403381 0.458864
-0.203125 0.093750 -0.742188 0.166122 0.559174
0.375000 0.015625 -0.703125 0.394264 0.462206
0.000000 0.046875 -0.726562 0.332047 0.471441
0.203125 0.093750 -0.742188 0.375170 0.454507
-0.125000 0.304688 -0.765625 0.269124 0.275302
0.125000 0.304688 -0.765625 0.379118 0.415267
0.000000 0.210938 -0.765625 0.327426 0.411480
-0.132812 0.210938 -0.757812 0.189425 0.387582
0.132812 0.210938 -0.757812 0.368190 0.431067
-0.164062 0.140625 -0.750000 0.151185 0.488084
0.164062 0.140625 -0.750000 0.369384 0.445759
-0.062500 -0.882812 -0.695312 0.406754 0.508954
0.062500 -0.882812 -0.695312 0.406621 0.507713
-0.117188 -0.835938 -0.710938 0.406445 0.509661
0.117188 -0.835938 -0.710938 0.406186 0.507103
-0.109375 -0.718750 -0.734375 0.404824 0.510112
-0.210938 -0.445312 -0.710938 0.399863 0.517624
-0.117188 -0.687500 -0.734375 0.404420 0.510475
0.117188 -0.687500 -0.734375 0.404143 0.506683
0.210938 -0.445312 -0.710938 0.399809 0.501087
0.109375 -0.718750 -0.734375 0.404574 0.506965
0.000000 -0.328125 -0.742188 0.388990 0.508196
-0.078125 -0.445312 -0.750000 0.396454 0.512103
-0.085938 -0.289062 -0.742188 0.385891 0.515537
0.078125 -0.445312 -0.750000 0.396703 0.505662
0.000000 -0.445312 -0.750000 0.396244 0.508772
0.000000 -0.679688 -0.734375 0.403624 0.508594
0.000000 -0.765625 -0.734375 0.404855 0.508503
-0.125000 -0.226562 -0.750000 0.378885 0.520531
-0.093750 -0.273438 -0.781250 0.382315 0.514263
0.093750 -0.273438 -0.781250 0.385346 0.500852
0.125000 -0.226562 -0.750000 0.385199 0.495458
0.085938 -0.289062 -0.742188 0.388460 0.501113
-0.101562 -0.148438 -0.742188 0.365255 0.520188
-0.132812 -0.226562 -0.796875 0.377823 0.515471
0.132812 -0.226562 -0.796875 0.382643 0.498177
0.101562 -0.148438 -0.742188 0.377310 0.490500
-0.039062 -0.125000 -0.781250 0.369653 0.508623
0.000000 -0.140625 -0.742188 0.365037 0.500719
0.039062 -0.125000 -0.781250 0.373686 0.498552
0.109375 -0.132812 -0.781250 0.377876 0.495966
0.000000 -0.187500 -0.796875 0.292466 0.856246
0.000000 -0.140625 -0.742188 0.304383 0.866704
0.000000 -0.195312 -0.750000 0.292223 0.866704
0.000000 -0.187500 -0.796875 0.374776 0.504547
0.000000 -0.320312 -0.781250 0.386361 0.507734
0.000000 -0.289062 -0.804688 0.383802 0.507180
0.078125 -0.250000 -0.804688 0.383003 0.501621
-0.046875 -0.148438 -0.812500 0.373034 0.509157
0.046875 -0.148438 -0.812500 0.376285 0.500122
-0.093750 -0.156250 -0.812500 0.373615 0.512380
-0.109375 -0.132812 -0.781250 0.371313 0.514256
0.093750 -0.156250 -0.812500 0.378398 0.498247
0.109375 -0.226562 -0.828125 0.381444 0.499795
-0.078125 -0.250000 -0.804688 0.380307 0.512166
-0.109375 -0.226562 -0.828125 0.377680 0.512997
0.000000 -0.203125 -0.828125 0.377600 0.505536
-0.164062 -0.242188 -0.710938 0.383255 0.527712
0.164062 -0.242188 -0.710938 0.389839 0.492783
0.179688 -0.312500 -0.710938 0.394086 0.496697
-0.179688 -0.312500 -0.710938 0.391425 0.523249
-0.257812 -0.312500 -0.554688 0.405621 0.530890
0.257812 -0.312500 -0.554688 0.403274 0.492743
-0.234375 -0.250000 -0.554688 0.403606 0.538264
0.234375 -0.250000 -0.554688 0.402022 0.489360
-0.093750 -0.742188 -0.726562 0.405089 0.509765
0.093750 -0.742188 -0.726562 0.404880 0.507247
0.000000 -0.773438 -0.718750 0.405023 0.508489
-0.093750 -0.820312 -0.710938 0.406208 0.509473
0.093750 -0.820312 -0.710938 0.405996 0.507324
-0.046875 -0.867188 -0.687500 0.406573 0.508818
0.046875 -0.867188 -0.687500 0.406475 0.507880
0.000000 -0.890625 -0.687500 0.406748 0.508324
0.000000 -0.875000 -0.687500 0.406603 0.508339
0.000000 -0.859375 -0.632812 0.406132 0.508387
0.046875 -0.851562 -0.632812 0.406038 0.508115
-0.093750 -0.812500 -0.640625 0.405961 0.508991
-0.046875 -0.851562 -0.632812 0.406093 0.508672
0.093750 -0.812500 -0.640625 0.405851 0.507831
-0.093750 -0.750000 -0.664062 0.405611 0.509098
0.093750 -0.750000 -0.664062 0.405493 0.507792
0.000000 -0.781250 -0.656250 0.405576 0.508440
-0.187500 0.156250 -0.773438 0.082975 0.481187
-0.171875 0.218750 -0.781250 0.114036 0.345891
0.187500 0.156250 -0.773438 0.375215 0.443171
0.171875 0.218750 -0.781250 0.376111 0.433281
-0.179688 0.296875 -0.781250 0.206959 0.195669
0.179688 0.296875 -0.781250 0.385112 0.425319
-0.210938 0.375000 -0.781250 0.368673 0.099116
0.210938 0.375000 -0.781250 0.396560 0.422843
0.226562 0.109375 -0.781250 0.379840 0.450266
-0.375000 0.062500 -0.742188 0.296804 0.771270
-0.226562 0.109375 -0.781250 0.113430 0.592464
0.375000 0.062500 -0.742188 0.393752 0.457082
-0.476562 0.101562 -0.718750 0.470861 0.808224
0.476562 0.101562 -0.718750 0.401657 0.455506
-0.578125 0.195312 -0.679688 0.658505 0.708889
0.578125 0.195312 -0.679688 0.409064 0.451773
-0.585938 0.289062 -0.687500 0.764715 0.599364
0.585938 0.289062 -0.687500 0.411417 0.447278
0.562500 0.351562 -0.695312 0.412304 0.443779
-0.562500 0.351562 -0.695312 0.788187 0.489090
0.421875 0.398438 -0.773438 0.408902 0.436562
-0.335938 0.429688 -0.757812 0.677645 0.109112
-0.421875 0.398438 -0.773438 0.824222 0.236194
0.335938 0.429688 -0.757812 0.406863 0.431069
-0.273438 0.421875 -0.773438 0.536197 0.071913
0.273438 0.421875 -0.773438 0.403830 0.426864
-0.281250 0.398438 -0.765625 0.540304 0.000116
0.281250 0.398438 -0.765625 0.402387 0.428516
0.234375 0.359375 -0.757812 0.396449 0.427327
-0.335938 0.406250 -0.750000 0.712361 0.056647
0.335938 0.406250 -0.750000 0.405396 0.432110
-0.414062 0.390625 -0.750000 0.870867 0.210974
0.414062 0.390625 -0.750000 0.407713 0.436994
-0.531250 0.335938 -0.679688 0.870867 0.501758
0.531250 0.335938 -0.679688 0.410153 0.443690
-0.554688 0.281250 -0.671875 0.816356 0.640456
0.554688 0.281250 -0.671875 0.409585 0.446891
-0.546875 0.210938 -0.671875 0.706640 0.761710
0.546875 0.210938 -0.671875 0.407700 0.450311
-0.460938 0.117188 -0.703125 0.474095 0.856013
0.460938 0.117188 -0.703125 0.401097 0.453910
-0.375000 0.085938 -0.726562 0.281792 0.822218
0.375000 0.085938 -0.726562 0.394481 0.454861
-0.242188 0.125000 -0.757812 0.063146 0.630853
0.242188 0.125000 -0.757812 0.382520 0.448223
-0.203125 0.171875 -0.750000 0.000116 0.468156
0.203125 0.171875 -0.750000 0.379685 0.441362
-0.195312 0.296875 -0.757812 0.161241 0.135085
-0.234375 0.359375 -0.757812 0.347451 0.009347
0.195312 0.296875 -0.757812 0.387466 0.428843
-0.195312 0.226562 -0.750000 0.019881 0.295355
0.195312 0.226562 -0.750000 0.381221 0.435165
-0.109375 0.460938 -0.609375 0.473673 0.390830
0.000000 0.406250 -0.601562 0.454789 0.396914
0.109375 0.460938 -0.609375 0.447609 0.408088
-0.195312 0.664062 -0.617188 0.510667 0.371780
0.195312 0.664062 -0.617188 0.429550 0.421459
0.320312 0.757812 -0.734375 0.424500 0.425263
0.335938 0.687500 -0.593750 0.429153 0.427138
-0.335938 0.687500 -0.593750 0.530541 0.381697
0.484375 0.554688 -0.554688 0.431229 0.436407
-0.484375 0.554688 -0.554688 0.549603 0.416977
0.679688 0.453125 -0.492188 0.428422 0.447289
-0.796875 0.406250 -0.460938 0.555551 0.495388
-0.679688 0.453125 -0.492188 0.559525 0.470465
0.796875 0.406250 -0.460938 0.426769 0.451378
0.828125 0.148438 -0.445312 0.421883 0.458149
0.773438 0.164062 -0.375000 0.424309 0.460172
-0.601562 0.000000 -0.414062 0.485389 0.566679
-0.773438 0.164062 -0.375000 0.522968 0.534611
0.601562 0.000000 -0.414062 0.417853 0.467534
-0.437500 -0.093750 -0.468750 0.446127 0.572742
0.437500 -0.093750 -0.468750 0.411279 0.474115
0.000000 -0.484375 -0.281250 0.421041 0.505444
-0.125000 -0.539062 -0.359375 0.417752 0.511544
0.000000 -0.570312 -0.320312 0.417091 0.506537
0.125000 -0.539062 -0.359375 0.415348 0.502157
0.179688 -0.414062 -0.257812 0.419283 0.495542
-0.140625 -0.757812 -0.367188 0.411725 0.509703
0.000000 -0.804688 -0.343750 0.411257 0.507701
0.140625 -0.757812 -0.367188 0.411027 0.505722
-0.164062 -0.945312 -0.437500 0.409377 0.509414
0.000000 -0.976562 -0.460938 0.409004 0.508046
0.164062 -0.945312 -0.437500 0.408986 0.506655
-0.328125 -0.914062 -0.398438 0.409482 0.510561
0.328125 -0.914062 -0.398438 0.408776 0.505579
-0.289062 -0.710938 -0.382812 0.410980 0.511950
0.289062 -0.710938 -0.382812 0.409707 0.503992
-0.250000 -0.500000 -0.390625 0.415760 0.517171
0.250000 -0.500000 -0.390625 0.411876 0.498872
-0.179688 -0.414062 -0.257812 0.426532 0.515849
-0.234375 -0.351562 -0.406250 0.418649 0.526599
0.234375 -0.351562 -0.406250 0.410865 0.492740
-0.218750 -0.281250 -0.429688 0.419690 0.534004
0.218750 -0.281250 -0.429688 0.409429 0.489217
0.210938 -0.226562 -0.468750 0.406661 0.486822
-0.203125 -0.171875 -0.500000 0.411426 0.548959
0.203125 -0.171875 -0.500000 0.404410 0.484534
0.437500 -0.140625 -0.531250 0.407144 0.472853
-0.335938 0.054688 0.664062 0.457318 0.487082
0.000000 -0.195312 0.671875 0.448957 0.486149
0.000000 0.070312 0.828125 0.452321 0.482050
0.335938 0.054688 0.664062 0.446925 0.478949
0.343750 -0.148438 0.539062 0.443569 0.481737
-0.343750 -0.148438 0.539062 0.454570 0.491796
0.000000 -0.382812 0.351562 0.442854 0.492309
0.296875 -0.312500 0.265625 0.437546 0.485920
-0.210938 -0.390625 -0.164062 0.432929 0.514338
0.000000 -0.460938 -0.187500 0.425361 0.503872
0.210938 -0.390625 -0.164062 0.423474 0.493356
-0.734375 -0.046875 -0.070312 0.476159 0.515872
-0.851562 0.234375 -0.054688 0.489651 0.500931
0.734375 -0.046875 -0.070312 0.429786 0.471059
0.851562 0.234375 -0.054688 0.434198 0.464585
-0.460938 0.437500 0.703125 0.463347 0.481563
0.000000 0.562500 0.851562 0.456444 0.475867
0.460938 0.437500 0.703125 0.449466 0.472999
-0.453125 0.851562 -0.234375 0.485059 0.454928
0.000000 0.984375 0.078125 0.464013 0.458106
0.000000 0.898438 -0.289062 0.466266 0.443674
0.453125 0.851562 -0.234375 0.450291 0.450176
0.453125 0.929688 0.070312 0.452379 0.458233
-0.453125 0.867188 0.382812 0.470146 0.471840
0.000000 0.898438 0.546875 0.460115 0.469117
0.453125 0.867188 0.382812 0.452579 0.464701
-0.726562 0.406250 -0.335938 0.531183 0.487359
-0.632812 0.453125 -0.281250 0.521943 0.470496
0.726562 0.406250 -0.335938 0.431567 0.453210
0.632812 0.453125 -0.281250 0.435697 0.451101
-0.796875 0.562500 -0.125000 0.496166 0.481596
-0.640625 0.703125 -0.054688 0.488681 0.470334
0.796875 0.562500 -0.125000 0.439247 0.458360
0.640625 0.703125 -0.054688 0.444843 0.456755
-0.796875 0.617188 0.117188 0.483012 0.480575
-0.640625 0.750000 0.195312 0.478105 0.474330
0.796875 0.617188 0.117188 0.443279 0.462388
0.640625 0.750000 0.195312 0.447651 0.462078
-0.796875 0.539062 0.359375 0.474857 0.483379
-0.640625 0.679688 0.445312 0.471483 0.478329
0.796875 0.539062 0.359375 0.444561 0.466889
0.640625 0.679688 0.445312 0.448316 0.466849
-0.617188 0.328125 0.585938 0.465998 0.485672
-0.773438 0.265625 0.437500 0.469649 0.490031
0.617188 0.328125 0.585938 0.445914 0.472517
-0.453125 0.929688 0.070312 0.476065 0.464957
-0.460938 0.523438 -0.429688 0.528339 0.432753
0.460938 0.523438 -0.429688 0.437574 0.439955
0.000000 0.570312 -0.570312 0.462187 0.410032
-0.859375 0.320312 0.046875 0.485900 0.494281
0.859375 0.320312 0.046875 0.437291 0.464758
-0.820312 0.328125 0.203125 0.477977 0.491260
0.820312 0.328125 0.203125 0.440034 0.467558
-0.296875 -0.312500 0.265625 0.448925 0.499584
-0.406250 -0.171875 -0.148438 0.450715 0.524569
0.406250 -0.171875 -0.148438 0.424103 0.481387
0.429688 -0.195312 0.210938 0.435882 0.481409
-0.593750 -0.125000 0.164062 0.462491 0.504826
0.593750 -0.125000 0.164062 0.435091 0.477014
-0.210938 -0.226562 -0.468750 0.415386 0.541454
-0.640625 -0.007812 0.429688 0.463880 0.493899
0.640625 -0.007812 0.429688 0.441176 0.475411
0.484375 0.023438 0.546875 0.443867 0.477478
-0.429688 -0.195312 0.210938 0.455219 0.503127
-0.484375 0.023438 0.546875 0.460123 0.490579
-0.890625 0.406250 0.234375 0.473743 0.492522
-1.015625 0.414062 0.289062 0.472768 0.493613
-1.023438 0.476562 0.312500 0.472379 0.493412
0.890625 0.406250 0.234375 0.440215 0.469754
1.015625 0.414062 0.289062 0.439843 0.470425
0.921875 0.359375 0.218750 0.439818 0.469711
-1.187500 0.437500 0.390625 0.471862 0.494078
-1.234375 0.507812 0.421875 0.471644 0.493972
1.187500 0.437500 0.390625 0.439757 0.470957
1.023438 0.476562 0.312500 0.440010 0.470586
1.234375 0.507812 0.421875 0.439845 0.471050
-1.351562 0.320312 0.421875 0.471462 0.494281
1.351562 0.320312 0.421875 0.439716 0.471192
1.265625 0.289062 0.406250 0.439632 0.471163
-1.265625 0.289062 0.406250 0.471561 0.494416
-1.281250 0.054688 0.429688 0.471042 0.494671
1.281250 0.054688 0.429688 0.439582 0.471467
1.210938 0.078125 0.406250 0.439446 0.471448
-1.210938 0.078125 0.406250 0.471149 0.494906
-1.039062 -0.101562 0.328125 0.469918 0.495910
1.039062 -0.101562 0.328125 0.439108 0.472232
1.031250 -0.039062 0.304688 0.438931 0.472029
-0.828125 -0.070312 0.132812 0.469326 0.499342
-0.773438 -0.140625 0.125000 0.467924 0.499801
0.828125 -0.070312 0.132812 0.437439 0.472955
0.773438 -0.140625 0.125000 0.437356 0.473735
-1.031250 -0.039062 0.304688 0.470363 0.496131
-0.882812 -0.023438 0.210938 0.470260 0.498270
0.882812 -0.023438 0.210938 0.437868 0.472350
-1.039062 0.000000 0.367188 0.470915 0.495874
1.039062 0.000000 0.367188 0.438987 0.471707
-1.234375 0.250000 0.445312 0.471579 0.494557
1.234375 0.250000 0.445312 0.439558 0.471175
1.187500 0.093750 0.445312 0.439392 0.471376
-1.171875 0.359375 0.437500 0.471894 0.494355
1.171875 0.359375 0.437500 0.439611 0.470985
-1.023438 0.343750 0.359375 0.472696 0.494276
1.023438 0.343750 0.359375 0.439524 0.470570
-0.945312 0.304688 0.289062 0.473800 0.494388
0.945312 0.304688 0.289062 0.439292 0.470046
-0.726562 0.000000 0.070312 0.474024 0.507321
0.726562 0.000000 0.070312 0.433347 0.471519
0.718750 -0.023438 0.171875 0.435526 0.472551
-0.718750 -0.023438 0.171875 0.470903 0.502966
-0.921875 0.359375 0.218750 0.474081 0.493209
-0.812500 -0.015625 0.273438 0.471482 0.498831
0.812500 -0.015625 0.273438 0.437440 0.471810
-0.718750 0.039062 0.187500 0.472952 0.501832
-0.843750 0.015625 0.273438 0.472073 0.498547
0.718750 0.039062 0.187500 0.435845 0.471458
-0.757812 0.093750 0.273438 0.473606 0.498891
-0.820312 0.085938 0.273438 0.472803 0.498358
0.843750 0.015625 0.273438 0.437506 0.471485
0.757812 0.093750 0.273438 0.437148 0.470788
0.820312 0.085938 0.273438 0.437505 0.471105
-0.796875 0.203125 0.210938 0.476771 0.497748
-0.835938 0.171875 0.273438 0.474639 0.497165
0.796875 0.203125 0.210938 0.437274 0.469171
-0.890625 0.242188 0.265625 0.474807 0.495383
-0.843750 0.289062 0.210938 0.477568 0.493770
0.890625 0.242188 0.265625 0.438654 0.469723
0.835938 0.171875 0.273438 0.437833 0.470065
0.843750 0.289062 0.210938 0.438966 0.468186
-0.890625 0.234375 0.320312 0.473884 0.495687
-0.953125 0.289062 0.343750 0.473274 0.494801
0.890625 0.234375 0.320312 0.438649 0.470210
0.953125 0.289062 0.343750 0.439173 0.470369
0.843750 0.171875 0.320312 0.438097 0.470435
-0.765625 0.093750 0.320312 0.473375 0.498127
-0.843750 0.171875 0.320312 0.473775 0.496865
0.765625 0.093750 0.320312 0.437542 0.470799
0.828125 0.078125 0.320312 0.437800 0.471057
-0.828125 0.078125 0.320312 0.472743 0.497768
0.851562 0.015625 0.320312 0.437809 0.471524
-0.812500 -0.015625 0.320312 0.471627 0.498355
-0.851562 0.015625 0.320312 0.471847 0.497987
0.812500 -0.015625 0.320312 0.437656 0.471679
-0.882812 -0.015625 0.265625 0.470843 0.497957
0.882812 -0.015625 0.265625 0.437952 0.472018
-1.039062 0.328125 0.414062 0.472438 0.494501
1.039062 0.328125 0.414062 0.439453 0.470735
-1.187500 0.343750 0.484375 0.471852 0.494502
1.187500 0.343750 0.484375 0.439544 0.471029
-1.257812 0.242188 0.492188 0.471668 0.494677
1.257812 0.242188 0.492188 0.439484 0.471149
-1.210938 0.085938 0.484375 0.471457 0.494971
-1.187500 0.093750 0.445312 0.471306 0.494966
1.210938 0.085938 0.484375 0.439367 0.471300
-1.046875 0.000000 0.421875 0.471232 0.495694
1.046875 0.000000 0.421875 0.439034 0.471520
-0.890625 0.109375 0.328125 0.472660 0.496877
0.890625 0.109375 0.328125 0.438246 0.470977
0.937500 0.062500 0.335938 0.438434 0.471336
-0.937500 0.062500 0.335938 0.471883 0.496714
-0.960938 0.171875 0.351562 0.472685 0.495821
0.960938 0.171875 0.351562 0.438761 0.470814
1.000000 0.125000 0.367188 0.438859 0.471093
-1.054688 0.187500 0.382812 0.472197 0.495256
-1.015625 0.234375 0.375000 0.472557 0.495112
1.054688 0.187500 0.382812 0.439113 0.470971
1.015625 0.234375 0.375000 0.439131 0.470771
-1.085938 0.273438 0.390625 0.472220 0.494797
1.085938 0.273438 0.390625 0.439338 0.470890
1.109375 0.210938 0.390625 0.439271 0.471007
-1.109375 0.210938 0.390625 0.472045 0.494985
-0.789062 -0.125000 0.328125 0.465912 0.496252
-1.039062 -0.085938 0.492188 0.469838 0.494679
0.789062 -0.125000 0.328125 0.439503 0.474479
1.039062 -0.085938 0.492188 0.439762 0.472093
-1.312500 0.054688 0.531250 0.470983 0.494373
1.312500 0.054688 0.531250 0.439744 0.471451
-1.367188 0.296875 0.500000 0.471341 0.494234
1.367188 0.296875 0.500000 0.439759 0.471246
-1.250000 0.468750 0.546875 0.471421 0.493984
1.250000 0.468750 0.546875 0.439875 0.471166
-1.023438 0.437500 0.484375 0.471383 0.493319
1.023438 0.437500 0.484375 0.440222 0.471079
-0.859375 0.382812 0.382812 0.471541 0.490905
0.859375 0.382812 0.382812 0.441485 0.470579
0.773438 0.265625 0.437500 0.442330 0.471444
0.164062 0.414062 -0.773438 0.399504 0.415143
-1.000000 0.125000 0.367188 0.472112 0.495791
3 0 1 2
3 3 4 5
3 2 6 7
3 8 5 9
3 1 10 6
3 11 3 8
3 12 13 1
3 14 15 3
3 16 17 13
3 18 19 14
3 13 20 10
3 21 14 11
3 22 20 17
3 23 21 24
3 25 22 17
3 23 26 18
3 27 28 22
3 29 30 23
3 28 31 22
3 29 24 32
3 33 34 28
3 35 32 36
3 37 28 38
3 39 29 35
3 40 33 37
3 41 35 42
3 43 44 33
3 42 36 45
3 2 46 43
3 5 45 9
3 0 43 40
3 4 42 5
3 40 47 0
3 41 48 49
3 37 50 40
3 39 49 51
3 38 52 37
3 53 51 54
3 27 55 38
3 30 54 56
3 27 57 58
3 59 30 56
3 25 60 57
3 61 26 59
3 16 62 60
3 63 19 61
3 12 47 62
3 48 15 63
3 64 62 47
3 48 63 65
3 60 62 64
3 65 63 61
3 64 57 60
3 61 59 65
3 64 58 57
3 59 56 65
3 64 55 58
3 56 54 65
3 64 52 55
3 54 51 65
3 64 50 52
3 51 49 65
3 64 47 50
3 49 48 65
3 66 67 68
3 69 67 70
3 71 68 72
3 73 74 69
3 75 71 72
3 73 76 77
3 78 79 75
3 80 81 76
3 82 83 78
3 84 85 81
3 86 87 88
3 89 90 91
3 92 87 93
3 94 89 95
3 92 96 97
3 98 94 95
3 99 96 100
3 101 98 102
3 103 104 99
3 105 102 106
3 107 108 103
3 109 106 110
3 107 111 112
3 113 109 110
3 114 111 115
3 116 113 117
3 118 119 114
3 120 117 121
3 122 123 118
3 122 121 124
3 125 123 126
3 127 121 117
3 125 111 119
3 113 127 117
3 112 128 129
3 110 130 113
3 108 129 131
3 106 132 110
3 104 131 133
3 102 134 106
3 96 133 135
3 98 136 102
3 97 135 137
3 95 138 98
3 87 137 139
3 89 140 95
3 88 139 141
3 91 142 89
3 141 143 88
3 143 144 91
3 123 145 126
3 121 146 124
3 145 147 148
3 147 146 149
3 150 147 143
3 151 147 149
3 152 70 66
3 70 153 69
3 154 66 71
3 69 155 73
3 154 79 156
3 155 80 73
3 157 158 83
3 159 160 84
3 156 83 158
3 84 161 159
3 162 163 164
3 162 165 166
3 163 167 158
3 165 167 166
3 156 167 168
3 161 167 159
3 169 170 164
3 171 172 173
3 174 175 169
3 176 177 172
3 178 174 179
3 180 177 181
3 182 183 184
3 185 179 180
3 164 186 162
3 173 186 171
3 170 187 186
3 171 187 188
3 185 189 178
3 190 185 180
3 178 191 192
3 193 180 181
3 191 175 192
3 193 176 194
3 175 195 170
3 188 176 171
3 196 189 197
3 194 190 193
3 197 195 196
3 188 197 194
3 179 88 143
3 91 179 143
3 174 198 88
3 199 177 91
3 164 198 169
3 173 199 200
3 163 201 164
3 165 200 160
3 202 157 82
3 203 160 200
3 204 201 202
3 205 200 199
3 86 198 204
3 199 90 205
3 168 206 156
3 168 207 208
3 154 206 209
3 207 155 210
3 152 209 211
3 210 153 212
3 213 211 214
3 212 213 214
3 211 215 214
3 212 215 216
3 211 217 218
3 219 212 216
3 209 220 217
3 221 210 219
3 208 220 206
3 208 221 222
3 222 218 220
3 216 222 221
3 220 218 217
3 219 216 221
3 148 223 224
3 225 149 226
3 145 224 227
3 226 146 228
3 145 229 126
3 146 230 228
3 141 223 150
3 144 225 231
3 141 232 233
3 234 144 231
3 139 235 232
3 236 142 234
3 137 237 235
3 238 140 236
3 135 239 237
3 240 138 238
3 131 239 133
3 134 240 241
3 129 242 131
3 132 241 243
3 129 244 245
3 246 132 243
3 128 247 244
3 248 130 246
3 125 229 247
3 230 127 248
3 229 249 247
3 230 250 251
3 244 249 252
3 250 246 253
3 244 254 245
3 246 255 253
3 245 256 242
3 243 257 255
3 239 256 258
3 257 240 259
3 239 260 237
3 240 261 259
3 235 260 262
3 261 236 263
3 235 264 232
3 236 265 263
3 232 266 233
3 234 267 265
3 223 266 268
3 267 225 269
3 229 270 271
3 272 230 251
3 227 273 270
3 274 228 272
3 224 268 273
3 269 226 274
3 122 275 276
3 277 122 276
3 118 278 275
3 279 120 277
3 115 278 114
3 280 279 281
3 107 282 115
3 109 281 283
3 103 284 107
3 105 283 285
3 103 286 287
3 288 105 285
3 100 286 99
3 289 288 290
3 100 291 292
3 293 289 290
3 92 294 291
3 295 94 293
3 296 297 298
3 296 299 300
3 298 301 302
3 298 303 299
3 302 304 305
3 302 306 303
3 68 305 304
3 305 74 306
3 72 304 307
3 306 77 308
3 75 307 309
3 308 76 310
3 78 309 311
3 310 81 312
3 309 297 311
3 299 310 312
3 307 301 309
3 308 303 306
3 311 313 314
3 312 300 299
3 82 311 314
3 312 85 315
3 316 204 202
3 317 205 318
3 314 202 82
3 315 203 317
3 204 319 86
3 205 320 318
3 319 93 86
3 320 321 295
3 322 323 324
3 325 323 326
3 327 328 323
3 326 328 329
3 328 330 331
3 332 328 331
3 331 313 296
3 300 331 296
3 313 316 314
3 300 317 332
3 292 333 334
3 335 290 336
3 337 324 338
3 339 324 325
3 340 341 342
3 343 341 344
3 341 345 346
3 347 341 346
3 346 337 338
3 339 346 338
3 287 348 349
3 350 285 351
3 349 352 353
3 354 351 355
3 353 356 357
3 358 355 359
3 357 360 361
3 362 359 363
3 364 360 365
3 366 362 363
3 337 361 364
3 363 339 366
3 345 357 361
3 359 347 363
3 367 353 357
3 355 344 359
3 340 349 353
3 351 343 355
3 287 368 284
3 285 369 351
3 368 342 370
3 369 342 343
3 275 282 284
3 281 277 283
3 275 368 370
3 369 277 370
3 276 275 370
3 370 277 276
3 292 348 286
3 290 350 336
3 334 352 348
3 354 336 350
3 371 356 352
3 358 372 354
3 360 373 365
3 362 374 358
3 375 376 330
3 329 377 378
3 376 379 333
3 377 380 378
3 291 376 333
3 377 293 335
3 294 316 376
3 317 295 377
3 316 330 376
3 377 332 317
3 294 319 381
3 318 320 295
3 382 364 365
3 383 366 384
3 364 322 337
3 366 325 384
3 385 382 379
3 378 383 384
3 327 385 375
3 326 378 384
3 322 386 327
3 326 384 325
3 387 388 389
3 390 391 392
3 389 393 394
3 395 396 397
3 393 398 394
3 395 399 400
3 401 402 398
3 400 403 404
3 405 406 402
3 404 407 408
3 406 409 410
3 411 407 412
3 413 414 409
3 415 408 411
3 405 416 413
3 417 404 408
3 418 405 401
3 419 404 420
3 421 401 393
3 422 400 419
3 423 393 388
3 424 395 422
3 388 425 423
3 426 391 424
3 379 427 333
3 380 428 429
3 410 430 379
3 412 429 411
3 334 427 371
3 428 336 372
3 373 431 387
3 392 374 390
3 409 432 430
3 433 411 429
3 434 432 435
3 436 433 429
3 437 435 438
3 439 440 441
3 442 437 443
3 444 440 436
3 442 445 446
3 444 447 448
3 446 425 431
3 449 426 447
3 371 446 373
3 449 372 374
3 427 442 371
3 428 444 436
3 427 430 434
3 436 429 428
3 425 450 451
3 452 426 453
3 443 450 445
3 448 452 454
3 443 455 456
3 457 448 454
3 438 455 437
3 441 457 458
3 435 459 438
3 439 458 460
3 435 461 462
3 463 439 460
3 432 464 461
3 465 433 463
3 423 451 466
3 453 424 467
3 421 466 468
3 467 422 469
3 418 468 470
3 469 419 471
3 418 472 473
3 419 474 471
3 473 475 416
3 420 476 474
3 416 464 414
3 417 465 476
3 462 477 459
3 460 478 479
3 480 481 477
3 479 482 483
3 481 484 485
3 486 482 487
3 484 488 485
3 486 489 490
3 466 485 488
3 487 467 489
3 481 451 450
3 482 453 487
3 456 481 450
3 454 482 478
3 459 456 455
3 454 458 457
3 464 462 461
3 465 460 479
3 475 480 464
3 479 476 465
3 484 475 472
3 486 476 483
3 491 472 470
3 490 474 486
3 468 491 470
3 490 469 471
3 466 488 468
3 469 489 467
3 406 492 493
3 494 407 495
3 402 493 496
3 495 403 497
3 402 498 398
3 403 499 497
3 398 500 394
3 399 501 499
3 394 502 389
3 397 503 501
3 389 504 387
3 396 505 503
3 493 504 502
3 495 505 494
3 502 496 493
3 497 503 495
3 500 498 496
3 497 499 501
3 373 504 365
3 374 505 390
3 365 492 382
3 494 506 383
3 379 492 410
3 494 380 412
3 0 12 1
3 3 15 4
3 2 1 6
3 8 3 5
3 1 13 10
3 11 14 3
3 12 16 13
3 14 19 15
3 16 25 17
3 18 26 19
3 13 17 20
3 21 18 14
3 22 31 20
3 23 18 21
3 25 27 22
3 23 30 26
3 27 38 28
3 29 53 30
3 28 34 31
3 29 23 24
3 33 44 34
3 35 29 32
3 37 33 28
3 39 53 29
3 40 43 33
3 41 39 35
3 43 46 44
3 42 35 36
3 2 7 46
3 5 42 45
3 0 2 43
3 4 41 42
3 40 50 47
3 41 4 48
3 37 52 50
3 39 41 49
3 38 55 52
3 53 39 51
3 27 58 55
3 30 53 54
3 27 25 57
3 59 26 30
3 25 16 60
3 61 19 26
3 16 12 62
3 63 15 19
3 12 0 47
3 48 4 15
3 66 70 67
3 69 74 67
3 71 66 68
3 73 77 74
3 75 79 71
3 73 80 76
3 78 83 79
3 80 84 81
3 82 157 83
3 84 160 85
3 86 93 87
3 89 321 90
3 92 97 87
3 94 321 89
3 92 100 96
3 98 289 94
3 99 104 96
3 101 289 98
3 103 108 104
3 105 101 102
3 107 112 108
3 109 105 106
3 107 115 111
3 113 280 109
3 114 119 111
3 116 280 113
3 118 123 119
3 120 116 117
3 122 124 123
3 122 120 121
3 125 119 123
3 127 507 121
3 125 128 111
3 113 130 127
3 112 111 128
3 110 132 130
3 108 112 129
3 106 134 132
3 104 108 131
3 102 136 134
3 96 104 133
3 98 138 136
3 97 96 135
3 95 140 138
3 87 97 137
3 89 142 140
3 88 87 139
3 91 144 142
3 141 150 143
3 143 151 144
3 123 124 145
3 121 507 146
3 145 124 147
3 147 124 146
3 150 148 147
3 151 143 147
3 152 213 70
3 70 213 153
3 154 152 66
3 69 153 155
3 154 71 79
3 155 161 80
3 157 163 158
3 159 165 160
3 156 79 83
3 84 80 161
3 162 166 163
3 162 173 165
3 163 166 167
3 165 159 167
3 156 158 167
3 161 168 167
3 169 175 170
3 171 176 172
3 174 192 175
3 176 181 177
3 178 192 174
3 180 179 177
3 185 178 179
3 164 170 186
3 173 162 186
3 170 195 187
3 171 186 187
3 185 197 189
3 190 197 185
3 178 189 191
3 193 190 180
3 191 196 175
3 193 181 176
3 175 196 195
3 188 194 176
3 196 191 189
3 194 197 190
3 197 187 195
3 188 187 197
3 179 174 88
3 91 177 179
3 174 169 198
3 199 172 177
3 164 201 198
3 173 172 199
3 163 157 201
3 165 173 200
3 202 201 157
3 203 85 160
3 204 198 201
3 205 203 200
3 86 88 198
3 199 91 90
3 168 208 206
3 168 161 207
3 154 156 206
3 207 161 155
3 152 154 209
3 210 155 153
3 213 152 211
3 212 153 213
3 211 218 215
3 212 214 215
3 211 209 217
3 219 210 212
3 209 206 220
3 221 207 210
3 208 222 220
3 208 207 221
3 222 215 218
3 216 215 222
3 148 150 223
3 225 151 149
3 145 148 224
3 226 149 146
3 145 227 229
3 146 507 230
3 141 233 223
3 144 151 225
3 141 139 232
3 234 142 144
3 139 137 235
3 236 140 142
3 137 135 237
3 238 138 140
3 135 133 239
3 240 136 138
3 131 242 239
3 134 136 240
3 129 245 242
3 132 134 241
3 129 128 244
3 246 130 132
3 128 125 247
3 248 127 130
3 125 126 229
3 230 507 127
3 229 271 249
3 230 248 250
3 244 247 249
3 250 248 246
3 244 252 254
3 246 243 255
3 245 254 256
3 243 241 257
3 239 242 256
3 257 241 240
3 239 258 260
3 240 238 261
3 235 237 260
3 261 238 236
3 235 262 264
3 236 234 265
3 232 264 266
3 234 231 267
3 223 233 266
3 267 231 225
3 229 227 270
3 272 228 230
3 227 224 273
3 274 226 228
3 224 223 268
3 269 225 226
3 122 118 275
3 277 120 122
3 118 114 278
3 279 116 120
3 115 282 278
3 280 116 279
3 107 284 282
3 109 280 281
3 103 287 284
3 105 109 283
3 103 99 286
3 288 101 105
3 100 292 286
3 289 101 288
3 100 92 291
3 293 94 289
3 92 93 294
3 295 321 94
3 296 313 297
3 296 298 299
3 298 297 301
3 298 302 303
3 302 301 304
3 302 305 306
3 68 67 305
3 305 67 74
3 72 68 304
3 306 74 77
3 75 72 307
3 308 77 76
3 78 75 309
3 310 76 81
3 309 301 297
3 299 303 310
3 307 304 301
3 308 310 303
3 311 297 313
3 312 315 300
3 82 78 311
3 312 81 85
3 316 381 204
3 317 203 205
3 314 316 202
3 315 85 203
3 204 381 319
3 205 90 320
3 319 294 93
3 320 90 321
3 322 327 323
3 325 324 323
3 327 375 328
3 326 323 328
3 328 375 330
3 332 329 328
3 331 330 313
3 300 332 331
3 313 330 316
3 300 315 317
3 292 291 333
3 335 293 290
3 337 322 324
3 339 338 324
3 340 367 341
3 343 342 341
3 341 367 345
3 347 344 341
3 346 345 337
3 339 347 346
3 287 286 348
3 350 288 285
3 349 348 352
3 354 350 351
3 353 352 356
3 358 354 355
3 357 356 360
3 362 358 359
3 364 361 360
3 366 506 362
3 337 345 361
3 363 347 339
3 345 367 357
3 359 344 347
3 367 340 353
3 355 343 344
3 340 368 349
3 351 369 343
3 287 349 368
3 285 283 369
3 368 340 342
3 369 370 342
3 275 278 282
3 281 279 277
3 275 284 368
3 369 283 277
3 292 334 348
3 290 288 350
3 334 371 352
3 354 372 336
3 371 373 356
3 358 374 372
3 360 356 373
3 362 506 374
3 375 385 376
3 329 332 377
3 376 385 379
3 377 335 380
3 291 294 376
3 377 295 293
3 294 381 316
3 317 318 295
3 382 386 364
3 383 506 366
3 364 386 322
3 366 339 325
3 385 386 382
3 378 380 383
3 327 386 385
3 326 329 378
3 387 431 388
3 390 396 391
3 389 388 393
3 395 391 396
3 393 401 398
3 395 397 399
3 401 405 402
3 400 399 403
3 405 413 406
3 404 403 407
3 406 413 409
3 411 408 407
3 413 416 414
3 415 417 408
3 405 473 416
3 417 420 404
3 418 473 405
3 419 400 404
3 421 418 401
3 422 395 400
3 423 421 393
3 424 391 395
3 388 431 425
3 426 392 391
3 379 430 427
3 380 335 428
3 410 409 430
3 412 380 429
3 334 333 427
3 428 335 336
3 373 446 431
3 392 449 374
3 409 414 432
3 433 415 411
3 434 430 432
3 436 439 433
3 437 434 435
3 439 436 440
3 442 434 437
3 444 448 440
3 442 443 445
3 444 449 447
3 446 445 425
3 449 392 426
3 371 442 446
3 449 444 372
3 427 434 442
3 428 372 444
3 425 445 450
3 452 447 426
3 443 456 450
3 448 447 452
3 443 437 455
3 457 440 448
3 438 459 455
3 441 440 457
3 435 462 459
3 439 441 458
3 435 432 461
3 463 433 439
3 432 414 464
3 465 415 433
3 423 425 451
3 453 426 424
3 421 423 466
3 467 424 422
3 418 421 468
3 469 422 419
3 418 470 472
3 419 420 474
3 473 472 475
3 420 417 476
3 416 475 464
3 417 415 465
3 462 480 477
3 460 458 478
3 480 508 481
3 479 478 482
3 481 508 484
3 486 483 482
3 484 491 488
3 486 487 489
3 466 451 485
3 487 453 467
3 481 485 451
3 482 452 453
3 456 477 481
3 454 452 482
3 459 477 456
3 454 478 458
3 464 480 462
3 465 463 460
3 475 508 480
3 479 483 476
3 484 508 475
3 486 474 476
3 491 484 472
3 490 471 474
3 468 488 491
3 490 489 469
3 406 410 492
3 494 412 407
3 402 406 493
3 495 407 403
3 402 496 498
3 403 399 499
3 398 498 500
3 399 397 501
3 394 500 502
3 397 396 503
3 389 502 504
3 396 390 505
3 493 492 504
3 495 503 505
3 502 500 496
3 497 501 503
3 373 387 504
3 374 506 505
3 365 504 492
3 494 505 506
3 379 382 492
3 494 383 380
