ply
format ascii 1.0
comment Created by Blender 2.78 (sub 0) - www.blender.org, source file: ''
element vertex 11
property float x
property float y
property float z
element face 18
property list uchar uint vertex_indices
end_header
0.651015 0.194340 -1.620219
1.000000 -1.000000 -1.000000
-0.279154 -1.434150 -0.463097
-0.660598 0.523009 0.548152
-1.000000 -1.000000 1.000000
0.821417 -1.075204 0.672261
1.000000 0.999999 1.000000
-0.949386 0.999707 -0.999318
-0.450037 -1.665090 -0.888354
0.480131 -0.462481 -2.045477
-1.120269 0.768766 -1.424576
3 0 1 2
3 3 4 5
3 0 6 5
3 5 4 2
3 2 4 3
3 0 7 3
3 7 2 3
3 6 3 5
3 1 5 2
3 1 0 5
3 2 8 9
3 6 0 3
3 10 9 8
3 2 7 10
3 7 0 9
3 0 2 9
3 8 2 10
3 10 7 9
