ply
format ascii 1.0
comment Created by Blender 2.78 (sub 0) - www.blender.org, source file: 'player.blend'
element vertex 546
property float x
property float y
property float z
property float s
property float t
element face 1024
property list uchar uint vertex_indices
end_header
-0.648074 -0.754206 0.136814 0.181960 0.399933
-0.546611 -0.840179 0.706960 0.189127 0.325279
-0.648074 -0.754206 0.706960 0.193915 0.340568
0.000000 0.707107 -0.707107 0.464050 0.599551
-0.162212 0.555570 -0.815493 0.446803 0.541717
0.000000 0.555570 -0.831470 0.471023 0.530719
0.009028 -0.750223 -0.555570 0.340249 0.104639
-0.128922 -0.625861 -0.693520 0.365716 0.178373
-0.099359 -0.750223 -0.544895 0.335709 0.133749
-0.180240 0.382683 -0.906128 0.445937 0.481288
0.000000 0.382683 -0.923880 0.471102 0.464400
-0.065630 -0.842633 -0.375331 0.298943 0.095075
0.009028 -0.842633 -0.382684 0.299504 0.075266
-0.191342 0.195090 -0.961940 0.441258 0.424296
0.000000 0.195090 -0.980785 0.464916 0.401066
-0.029033 -0.899539 -0.191342 0.244245 0.078510
0.009028 -0.899539 -0.195091 0.244624 0.065630
-0.195090 0.000000 -0.980786 0.432567 0.369636
0.000000 0.000000 -1.000000 0.452968 0.341397
0.000000 0.980785 -0.195091 0.392763 0.827206
0.000000 1.000000 -0.000001 0.326052 0.907339
-0.038060 0.980785 -0.191342 0.383874 0.822280
0.009028 -0.918754 -0.000000 0.184055 0.084445
-0.191342 -0.195090 -0.961940 0.420530 0.314859
0.000000 -0.195090 -0.980785 0.439677 0.284662
-0.074658 0.923880 -0.375331 0.414727 0.742850
0.000000 0.923880 -0.382684 0.430102 0.745847
0.000000 -0.382683 -0.923880 0.422044 0.227552
-0.180240 -0.382683 -0.906128 0.404873 0.262512
-0.108386 0.831470 -0.544896 0.430743 0.671659
0.000000 0.831470 -0.555571 0.449240 0.670918
-0.153184 -0.474324 -0.815493 0.389974 0.224455
0.009027 -0.474324 -0.831470 0.402202 0.188323
-0.137950 0.707107 -0.693520 0.441269 0.604609
0.009028 -0.625861 -0.707107 0.372857 0.144430
-0.375330 -0.195090 -0.906127 0.400433 0.344047
-0.074658 0.980785 -0.180240 0.374004 0.819556
-0.146446 0.923880 -0.353554 0.398701 0.742406
-0.353553 -0.382683 -0.853554 0.387497 0.294350
-0.212608 0.831470 -0.513280 0.411186 0.674950
-0.309162 -0.474324 -0.768178 0.374900 0.256189
-0.270598 0.707107 -0.653282 0.418526 0.612450
-0.261571 -0.625861 -0.653282 0.354808 0.208357
-0.318190 0.555570 -0.768178 0.422011 0.553980
-0.203580 -0.750223 -0.513280 0.329387 0.160126
-0.353553 0.382683 -0.853554 0.421340 0.498898
-0.137419 -0.842633 -0.353554 0.295837 0.113104
-0.375330 0.195090 -0.906127 0.417108 0.446024
-0.065630 -0.899539 -0.180240 0.242403 0.091155
-0.382684 0.000000 -0.923880 0.410016 0.394886
-0.299631 -0.750223 -0.461940 0.320581 0.182854
-0.513280 0.382683 -0.768178 0.396291 0.516675
-0.203580 -0.842633 -0.318190 0.291090 0.129337
-0.544895 0.195090 -0.815493 0.392562 0.467499
-0.099359 -0.899539 -0.162212 0.238553 0.103197
-0.555570 0.000000 -0.831470 0.386866 0.419625
-0.108386 0.980785 -0.162212 0.363395 0.818756
-0.544895 -0.195090 -0.815493 0.379504 0.371572
-0.212608 0.923880 -0.318190 0.382160 0.743983
-0.513280 -0.382683 -0.768178 0.369274 0.323350
-0.308658 0.831470 -0.461940 0.390395 0.680901
-0.452912 -0.474324 -0.691342 0.358535 0.284838
-0.392847 0.707107 -0.587938 0.395935 0.622080
-0.383820 -0.625861 -0.587938 0.342083 0.235188
-0.461940 0.555570 -0.691342 0.397268 0.567918
-0.137950 0.980785 -0.137950 0.352317 0.819705
-0.270598 0.923880 -0.270598 0.364708 0.748121
-0.653281 -0.382683 -0.653282 0.350521 0.351157
-0.392847 0.831470 -0.392848 0.370029 0.688046
-0.578910 -0.474324 -0.587938 0.342220 0.312553
-0.500000 0.707107 -0.500000 0.372640 0.632992
-0.490973 -0.625861 -0.500000 0.328334 0.259216
-0.587938 0.555570 -0.587938 0.372223 0.582584
-0.383820 -0.750223 -0.392848 0.309793 0.200982
-0.653281 0.382683 -0.653282 0.370807 0.534534
-0.261571 -0.842633 -0.270598 0.284021 0.142629
-0.693520 0.195090 -0.693520 0.367343 0.488458
-0.128922 -0.899539 -0.137950 0.233400 0.114893
-0.707107 0.000000 -0.707107 0.362669 0.443559
-0.693520 -0.195090 -0.693520 0.357739 0.398220
-0.768178 0.382683 -0.513280 0.344789 0.551924
-0.452912 -0.750223 -0.308659 0.297933 0.215239
-0.309162 -0.842633 -0.212608 0.276238 0.154722
-0.815493 0.195090 -0.544895 0.341242 0.508392
-0.153184 -0.899539 -0.108387 0.226417 0.125566
-0.831470 0.000000 -0.555570 0.336923 0.466081
-0.162212 0.980785 -0.108387 0.341052 0.822140
-0.815493 -0.195090 -0.544895 0.333749 0.423561
-0.318190 0.923880 -0.212608 0.347116 0.753929
-0.768178 -0.382683 -0.513280 0.331147 0.379100
-0.461940 0.831470 -0.308659 0.349102 0.696828
-0.682314 -0.474324 -0.461940 0.325430 0.338978
-0.587938 0.707107 -0.392848 0.348701 0.645422
-0.578910 -0.625861 -0.392848 0.314951 0.281693
-0.691342 0.555570 -0.461940 0.347276 0.597252
-0.853553 -0.382683 -0.353554 0.306172 0.404807
-0.513280 0.831470 -0.212608 0.327839 0.706830
-0.759150 -0.474324 -0.318190 0.309415 0.368886
-0.653282 0.707107 -0.270598 0.324898 0.658326
-0.644254 -0.625861 -0.270598 0.302294 0.306115
-0.768178 0.555570 -0.318190 0.321699 0.612353
-0.504253 -0.750223 -0.212608 0.284486 0.219781
-0.853553 0.382683 -0.353554 0.318183 0.568794
-0.344526 -0.842633 -0.146447 0.267482 0.165422
-0.906127 0.195090 -0.375330 0.313987 0.527038
-0.171212 -0.899539 -0.074658 0.218143 0.135821
-0.923880 0.000000 -0.382684 0.310013 0.486341
-0.180240 0.980785 -0.074658 0.329787 0.825817
-0.906127 -0.195090 -0.375330 0.306774 0.445720
-0.353553 0.923880 -0.146447 0.329509 0.761444
-0.535868 -0.750223 -0.108387 0.267205 0.197441
-0.366303 -0.842633 -0.074658 0.233152 0.184496
-0.906128 0.382683 -0.180240 0.291317 0.585042
-0.961940 0.195090 -0.191342 0.286389 0.544092
-0.182314 -0.899539 -0.038061 0.208645 0.146272
-0.980785 0.000000 -0.195090 0.281802 0.504038
-0.191342 0.980785 -0.038061 0.318570 0.830567
-0.961940 -0.195090 -0.191342 0.277626 0.464618
-0.375330 0.923880 -0.074658 0.311873 0.771332
-0.906128 -0.382683 -0.180240 0.275256 0.425714
-0.544895 0.831470 -0.108387 0.306309 0.718862
-0.806466 -0.474324 -0.162212 0.276284 0.394331
-0.693520 0.707107 -0.137950 0.301044 0.671515
-0.684492 -0.625861 -0.137950 0.293852 0.348813
-0.815493 0.555570 -0.162212 0.296046 0.627537
-0.822442 -0.474324 -0.000000 0.238133 0.409675
-0.707107 0.707107 -0.000000 0.277003 0.685777
-0.647071 -0.749781 0.007153 0.230971 0.373378
-0.831469 0.555570 -0.000000 0.270355 0.642629
-0.923880 0.382683 -0.000000 0.264431 0.600908
-0.546543 -0.832291 0.005471 0.215257 0.237139
-0.373656 -0.842633 -0.000000 0.208218 0.198551
-0.980785 0.195090 -0.000000 0.258660 0.560399
-0.186063 -0.899539 -0.000000 0.199027 0.155570
-1.000000 0.000000 -0.000000 0.253128 0.520615
-0.195090 0.980785 -0.000000 0.307766 0.838594
-0.980785 -0.195090 -0.000000 0.248067 0.481065
-0.382683 0.923880 -0.000000 0.293996 0.781053
-0.923880 -0.382683 -0.000000 0.242699 0.442030
-0.555570 0.831470 -0.000000 0.285018 0.731812
-0.366303 -0.842633 0.074657 0.184300 0.216680
-0.182314 -0.899539 0.038060 0.188293 0.158110
-0.980785 0.000000 0.195090 0.224506 0.537880
-0.191342 0.980785 0.038060 0.296565 0.846019
-0.961939 -0.195090 0.191342 0.218247 0.500471
-0.375330 0.923880 0.074657 0.277285 0.794296
-0.906127 -0.382683 0.180240 0.211577 0.464266
-0.544895 0.831470 0.108386 0.263423 0.745790
-0.806466 -0.474324 0.162211 0.203200 0.438642
-0.693520 0.707107 0.137949 0.253195 0.701306
-0.684492 -0.625861 0.137949 0.176622 0.419790
-0.815493 0.555570 0.162211 0.244631 0.658438
-0.906127 0.382683 0.180240 0.237550 0.616987
-0.961939 0.195090 0.191342 0.230857 0.577006
-0.653281 0.707107 0.270598 0.228920 0.716280
-0.759150 -0.474324 0.318189 0.168055 0.450381
-0.644254 -0.625861 0.270598 0.159267 0.386458
-0.768177 0.555570 0.318189 0.218660 0.673601
-0.504252 -0.750223 0.212607 0.154770 0.292794
-0.535868 -0.750223 0.108386 0.164642 0.260041
-0.853553 0.382683 0.353553 0.210448 0.631841
-0.344526 -0.842633 0.146446 0.156820 0.226884
-0.906127 0.195090 0.375330 0.202770 0.591648
-0.171212 -0.899539 0.074657 0.177577 0.162621
-0.923879 0.000000 0.382683 0.195482 0.552839
-0.180240 0.980785 0.074658 0.286487 0.856003
-0.906127 -0.195090 0.375330 0.188409 0.514580
-0.353553 0.923880 0.146446 0.260144 0.807712
-0.853553 -0.382683 0.353553 0.180459 0.477307
-0.513280 0.831470 0.212607 0.242587 0.760735
-0.815493 0.195090 0.544895 0.174470 0.602894
-0.831469 0.000000 0.555570 0.167167 0.561266
-0.162212 0.980785 0.108386 0.276792 0.866868
-0.153184 -0.899539 0.108386 0.167821 0.161438
-0.815493 -0.195090 0.544895 0.159829 0.519969
-0.318190 0.923880 0.212607 0.242497 0.821988
-0.768178 -0.382683 0.513280 0.152360 0.477957
-0.461940 0.831470 0.308658 0.221963 0.775963
-0.682314 -0.474324 0.461939 0.147213 0.437365
-0.587938 0.707107 0.392847 0.205531 0.731424
-0.578910 -0.625861 0.392847 0.142768 0.375396
-0.691341 0.555570 0.461939 0.192465 0.687789
-0.452912 -0.750223 0.308658 0.141699 0.300799
-0.768178 0.382683 0.513280 0.183196 0.644471
-0.309162 -0.842633 0.212607 0.145569 0.231330
-0.490972 -0.625861 0.500000 0.125643 0.368016
-0.500000 0.707107 0.500000 0.181493 0.745610
-0.587937 0.555570 0.587937 0.166655 0.699691
-0.383820 -0.750223 0.392847 0.127823 0.300952
-0.653281 0.382683 0.653281 0.155991 0.653579
-0.261571 -0.842633 0.270598 0.134791 0.231465
-0.693519 0.195090 0.693519 0.147008 0.608310
-0.128922 -0.899539 0.137949 0.158955 0.160176
-0.707106 0.000000 0.707106 0.139463 0.563818
-0.137950 0.980785 0.137949 0.267288 0.878651
-0.693519 -0.195090 0.693519 0.133200 0.517913
-0.270598 0.923880 0.270598 0.227053 0.837785
-0.653281 -0.382683 0.653281 0.128290 0.470085
-0.392847 0.831470 0.392847 0.200948 0.791428
-0.578910 -0.474324 0.587937 0.126584 0.427512
-0.108386 0.980785 0.162211 0.259418 0.891320
-0.099359 -0.899539 0.162211 0.151035 0.157216
-0.544895 -0.195090 0.815493 0.107476 0.511160
-0.212608 0.923880 0.318189 0.211563 0.854244
-0.513280 -0.382683 0.768177 0.105247 0.459766
-0.308658 0.831470 0.461939 0.180275 0.806834
-0.452912 -0.474324 0.691341 0.105699 0.416706
-0.392847 0.707107 0.587937 0.157513 0.758361
-0.383820 -0.625861 0.587937 0.108096 0.358407
-0.461939 0.555570 0.691341 0.140754 0.708766
-0.299631 -0.750223 0.461939 0.113660 0.295028
-0.513280 0.382683 0.768177 0.128833 0.658966
-0.203580 -0.842633 0.318189 0.124562 0.227033
-0.544895 0.195090 0.815493 0.119017 0.610393
-0.555570 0.000000 0.831469 0.113209 0.560298
-0.270598 0.707107 0.653281 0.133594 0.769500
-0.318189 0.555570 0.768177 0.114688 0.714091
-0.203580 -0.750223 0.513279 0.099628 0.284113
-0.353553 0.382683 0.853553 0.101357 0.660232
-0.137419 -0.842633 0.353553 0.115113 0.218555
-0.375330 0.195090 0.906127 0.091701 0.606968
-0.065630 -0.899539 0.180240 0.144015 0.151987
-0.382683 0.000000 0.923879 0.086575 0.553965
-0.074658 0.980785 0.180240 0.253130 0.905014
-0.375330 -0.195090 0.906127 0.082472 0.499920
-0.146446 0.923880 0.353553 0.196920 0.870624
-0.353553 -0.382683 0.853553 0.082453 0.446028
-0.212608 0.831470 0.513280 0.159814 0.821781
-0.309162 -0.474324 0.768177 0.084831 0.402765
-0.261571 -0.625861 0.653281 0.090567 0.345014
-0.195090 0.000000 0.980785 0.060561 0.543046
-0.191341 -0.195090 0.961939 0.057498 0.484387
-0.074658 0.923880 0.375330 0.183865 0.888405
-0.180240 -0.382683 0.906127 0.059746 0.428046
-0.108386 0.831470 0.544895 0.139786 0.836644
-0.153184 -0.474324 0.815492 0.064404 0.384614
-0.137949 0.707107 0.693520 0.109836 0.776076
-0.128922 -0.625861 0.693520 0.073657 0.326756
-0.162211 0.555570 0.815492 0.087955 0.717442
-0.099359 -0.750223 0.544895 0.086373 0.267381
-0.180240 0.382683 0.906127 0.073541 0.657731
-0.065630 -0.842633 0.375330 0.106192 0.207292
-0.191341 0.195090 0.961939 0.064226 0.598591
-0.029033 -0.899539 0.191341 0.137969 0.144675
-0.038060 0.980785 0.191342 0.248407 0.918822
0.009028 -0.625861 0.707106 0.057357 0.304354
0.009028 -0.750223 0.555570 0.074602 0.245267
0.000000 0.382683 0.923879 0.045265 0.650513
0.009028 -0.842633 0.382683 0.099321 0.190798
0.000000 0.195090 0.980784 0.035734 0.576670
0.009028 -0.899539 0.195090 0.132984 0.135401
0.000000 0.000000 0.999999 0.035673 0.527999
0.000000 0.980785 0.195090 0.245993 0.933126
0.000000 -0.195090 0.980784 0.032192 0.466483
0.000000 0.923880 0.382683 0.171443 0.905418
0.000000 -0.382683 0.923879 0.037314 0.403693
0.000000 0.831470 0.555570 0.120489 0.850016
0.009028 -0.474324 0.831469 0.044483 0.362544
0.000000 0.707107 0.707106 0.086433 0.785640
0.000000 0.555570 0.831469 0.060517 0.712720
-0.546611 -0.840179 0.136814 0.172815 0.269139
-0.546611 -0.840179 -0.136176 0.262755 0.213458
-0.697231 -1.017936 -0.136176 0.220377 0.258838
-0.697231 -1.017936 0.136814 0.212696 0.285770
-0.798694 -0.931963 0.136814 0.229229 0.352448
-0.648074 -0.754206 -0.136176 0.284090 0.337250
-0.798694 -0.931963 -0.136176 0.239534 0.330210
-0.546611 -0.840179 -0.751804 0.257572 0.261529
-0.697231 -1.017936 -0.751804 0.245979 0.275729
-0.798694 -0.931963 -0.751804 0.246630 0.290932
-0.648074 -0.754206 -0.751804 0.258191 0.292992
-0.697231 -1.017936 0.706960 0.203714 0.319491
-0.798694 -0.931963 0.706960 0.205119 0.341575
0.546611 -0.840179 0.136814 0.665373 0.298958
0.648074 -0.754206 0.706960 0.693017 0.354417
0.648074 -0.754206 0.136814 0.693356 0.408879
0.000000 0.707107 -0.707107 0.960376 0.622243
0.162212 0.555570 -0.815493 0.942886 0.559266
0.000000 0.555570 -0.831470 0.965993 0.551841
-0.009027 -0.750223 -0.555570 0.837078 0.103553
0.128922 -0.625861 -0.693520 0.863346 0.176191
0.099359 -0.750223 -0.544895 0.832316 0.131571
0.180240 0.382683 -0.906128 0.943065 0.495414
0.000000 0.382683 -0.923880 0.966790 0.479708
0.065630 -0.842633 -0.375331 0.792783 0.093878
-0.009027 -0.842633 -0.382684 0.792583 0.074068
0.000000 0.195090 -0.980785 0.962042 0.414720
0.191342 0.195090 -0.961940 0.938632 0.434798
-0.009027 -0.899539 -0.195091 0.738661 0.065259
0.029033 -0.899539 -0.191342 0.738735 0.078486
0.195090 0.000000 -0.980786 0.932284 0.375516
0.000000 0.000000 -1.000000 0.953596 0.348140
0.000000 0.980785 -0.195091 0.882227 0.845545
0.000000 1.000000 -0.000001 0.818841 0.913109
0.038060 0.980785 -0.191342 0.874438 0.838354
-0.009027 -0.918754 -0.000000 0.680739 0.088099
0.000000 -0.195090 -0.980785 0.938936 0.288361
0.191342 -0.195090 -0.961940 0.919490 0.318370
0.074658 0.923880 -0.375331 0.906463 0.764147
0.000000 0.923880 -0.382684 0.920401 0.771550
0.180240 -0.382683 -0.906128 0.904435 0.262322
0.000000 -0.382683 -0.923880 0.920332 0.225184
0.108386 0.831470 -0.544896 0.925068 0.692781
0.000000 0.831470 -0.555571 0.942888 0.696691
0.153184 -0.474324 -0.815493 0.888469 0.223045
-0.009027 -0.474324 -0.831470 0.899230 0.184283
0.137950 0.707107 -0.693520 0.937921 0.624460
-0.009027 -0.625861 -0.707107 0.869677 0.140575
0.375330 -0.195090 -0.906127 0.899885 0.347641
0.146447 0.923880 -0.353554 0.891457 0.759722
0.353553 -0.382683 -0.853554 0.887027 0.294993
0.212608 0.831470 -0.513280 0.906236 0.692283
0.309162 -0.474324 -0.768178 0.873939 0.255771
0.270598 0.707107 -0.653282 0.915221 0.628644
0.261571 -0.625861 -0.653282 0.852954 0.207059
0.318190 0.555570 -0.768178 0.919410 0.568859
0.203580 -0.750223 -0.513280 0.826854 0.157801
0.353553 0.382683 -0.853554 0.919054 0.510845
0.137419 -0.842633 -0.353554 0.789529 0.111800
0.375330 0.195090 -0.906127 0.915209 0.455096
0.065630 -0.899539 -0.180240 0.736941 0.091456
0.382684 0.000000 -0.923880 0.909326 0.400641
0.074658 0.980785 -0.180240 0.865484 0.833305
0.299631 -0.750223 -0.461940 0.818498 0.180077
0.513280 0.382683 -0.768178 0.894554 0.526378
0.203580 -0.842633 -0.318190 0.784962 0.128140
0.544895 0.195090 -0.815493 0.891163 0.475082
0.099359 -0.899539 -0.162212 0.733472 0.103968
0.555570 0.000000 -0.831470 0.886060 0.424939
0.108387 0.980785 -0.162212 0.855933 0.830035
0.544895 -0.195090 -0.815493 0.879088 0.374847
0.212608 0.923880 -0.318190 0.875131 0.758834
0.513280 -0.382683 -0.768178 0.868947 0.324313
0.308658 0.831470 -0.461940 0.886668 0.694317
0.452912 -0.474324 -0.691342 0.857799 0.284625
0.392847 0.707107 -0.587938 0.892745 0.635086
0.383820 -0.625861 -0.587938 0.840274 0.234089
0.461940 0.555570 -0.691342 0.895041 0.579397
0.270598 0.923880 -0.270598 0.859117 0.759198
0.653281 -0.382683 -0.653282 0.850415 0.351982
0.392848 0.831470 -0.392848 0.866080 0.698857
0.578910 -0.474324 -0.587938 0.841648 0.311938
0.500000 0.707107 -0.500000 0.869906 0.643156
0.490973 -0.625861 -0.500000 0.826479 0.258389
0.587938 0.555570 -0.587938 0.870431 0.591209
0.383820 -0.750223 -0.392848 0.807882 0.197074
0.653281 0.382683 -0.653282 0.869377 0.542005
0.261571 -0.842633 -0.270598 0.777888 0.141708
0.693520 0.195090 -0.693520 0.866331 0.494456
0.128922 -0.899539 -0.137950 0.728799 0.116272
0.707107 0.000000 -0.707107 0.861775 0.447998
0.137950 0.980785 -0.137950 0.845426 0.829275
0.693520 -0.195090 -0.693520 0.857414 0.401027
0.768178 0.382683 -0.513280 0.843473 0.557507
0.309162 -0.842633 -0.212608 0.770127 0.154260
0.815493 0.195090 -0.544895 0.840083 0.513040
0.153184 -0.899539 -0.108387 0.722333 0.127621
0.831470 0.000000 -0.555570 0.836406 0.469530
0.162212 0.980785 -0.108387 0.834560 0.830502
0.815493 -0.195090 -0.544895 0.833463 0.425706
0.318190 0.923880 -0.212608 0.842139 0.762935
0.768178 -0.382683 -0.513280 0.831380 0.379751
0.461940 0.831470 -0.308659 0.845605 0.704840
0.682314 -0.474324 -0.461940 0.825502 0.337708
0.587938 0.707107 -0.392848 0.846788 0.652154
0.578910 -0.625861 -0.392848 0.812566 0.280449
0.691342 0.555570 -0.461940 0.845465 0.603731
0.452912 -0.750223 -0.308658 0.796205 0.210401
0.853553 -0.382683 -0.353554 0.806251 0.404800
0.353553 0.923880 -0.146447 0.825471 0.767101
0.513280 0.831470 -0.212608 0.824657 0.713482
0.759150 -0.474324 -0.318190 0.810795 0.366054
0.653281 0.707107 -0.270598 0.823058 0.663529
0.644254 -0.625861 -0.270598 0.800287 0.303900
0.768177 0.555570 -0.318190 0.820213 0.617285
0.504253 -0.750223 -0.212608 0.782381 0.214758
0.853553 0.382683 -0.353554 0.817078 0.573184
0.344526 -0.842633 -0.146447 0.760190 0.164339
0.906127 0.195090 -0.375330 0.813160 0.530697
0.171213 -0.899539 -0.074658 0.715192 0.140342
0.923880 0.000000 -0.382684 0.809539 0.489088
0.180240 0.980785 -0.074658 0.823641 0.833540
0.906127 -0.195090 -0.375330 0.806406 0.447482
0.535868 -0.750223 -0.108387 0.762836 0.196888
0.366303 -0.842633 -0.074658 0.729500 0.191728
0.906127 0.382683 -0.180240 0.790382 0.589073
0.961939 0.195090 -0.191342 0.785677 0.547922
0.182314 -0.899539 -0.038061 0.707055 0.152668
0.980785 0.000000 -0.195090 0.781268 0.507767
0.191342 0.980785 -0.038061 0.812975 0.836507
0.961939 -0.195090 -0.191342 0.777170 0.468171
0.375330 0.923880 -0.074658 0.808114 0.776867
0.906127 -0.382683 -0.180240 0.775172 0.428952
0.544895 0.831470 -0.108387 0.803712 0.723270
0.806466 -0.474324 -0.162212 0.776423 0.396676
0.693520 0.707107 -0.137950 0.799292 0.675810
0.684492 -0.625861 -0.137950 0.795101 0.346058
0.815493 0.555570 -0.162212 0.794735 0.631727
0.822442 -0.474324 -0.000000 0.736935 0.421161
0.555570 0.831470 -0.000000 0.782631 0.735959
0.707107 0.707107 -0.000000 0.775643 0.690118
0.647071 -0.749781 0.007153 0.737486 0.376967
0.831469 0.555570 -0.000000 0.769227 0.646617
0.923880 0.382683 -0.000000 0.763564 0.605215
0.546543 -0.832291 0.005471 0.709205 0.252389
0.373656 -0.842633 -0.000000 0.705561 0.209276
0.980785 0.195090 -0.000000 0.757859 0.565213
0.186063 -0.899539 -0.000000 0.697947 0.162822
1.000000 0.000000 -0.000000 0.752270 0.526212
0.195090 0.980785 -0.000000 0.802428 0.842916
0.980785 -0.195090 -0.000000 0.746613 0.488152
0.382683 0.923880 -0.000000 0.790794 0.785006
0.923880 -0.382683 -0.000000 0.741209 0.451338
0.366303 -0.842633 0.074658 0.681603 0.232779
0.182314 -0.899539 0.038060 0.687768 0.165906
0.980785 0.000000 0.195090 0.723271 0.545172
0.191342 0.980785 0.038060 0.792203 0.850755
0.961939 -0.195090 0.191342 0.715318 0.510512
0.375330 0.923880 0.074658 0.774028 0.796607
0.906127 -0.382683 0.180240 0.706950 0.476716
0.544895 0.831470 0.108386 0.761297 0.748770
0.806465 -0.474324 0.162211 0.692086 0.458295
0.693520 0.707107 0.137949 0.751948 0.704461
0.684492 -0.625861 0.137949 0.690830 0.429177
0.815493 0.555570 0.162211 0.743729 0.662520
0.906127 0.382683 0.180240 0.736661 0.621721
0.961939 0.195090 0.191342 0.729768 0.582826
0.653281 0.707107 0.270598 0.728439 0.719451
0.644254 -0.625861 0.270598 0.665259 0.393545
0.768177 0.555570 0.318189 0.717688 0.677456
0.504252 -0.750223 0.212607 0.645467 0.294016
0.535868 -0.750223 0.108386 0.655792 0.294225
0.853553 0.382683 0.353553 0.709538 0.636546
0.344526 -0.842633 0.146446 0.665404 0.234910
0.906127 0.195090 0.375330 0.701488 0.597534
0.171213 -0.899539 0.074657 0.677965 0.166971
0.923879 0.000000 0.382683 0.693945 0.559458
0.180240 0.980785 0.074658 0.782415 0.859919
0.906127 -0.195090 0.375330 0.684945 0.523587
0.353553 0.923880 0.146446 0.757673 0.809645
0.853553 -0.382683 0.353553 0.677379 0.486052
0.513280 0.831470 0.212607 0.740658 0.763529
0.759150 -0.474324 0.318189 0.670745 0.447739
0.831469 0.000000 0.555570 0.664929 0.567017
0.162212 0.980785 0.108386 0.773189 0.870280
0.153184 -0.899539 0.108386 0.668411 0.167265
0.815493 -0.195090 0.544895 0.658320 0.523538
0.318190 0.923880 0.212607 0.741781 0.823770
0.768178 -0.382683 0.513280 0.652138 0.478860
0.461940 0.831470 0.308658 0.720098 0.778742
0.682314 -0.474324 0.461939 0.649148 0.437899
0.587938 0.707107 0.392847 0.704835 0.734210
0.578910 -0.625861 0.392847 0.645195 0.379882
0.691341 0.555570 0.461939 0.692131 0.691439
0.452912 -0.750223 0.308658 0.634424 0.299926
0.768178 0.382683 0.513280 0.682439 0.648809
0.309162 -0.842633 0.212607 0.650743 0.233204
0.815493 0.195090 0.544895 0.673645 0.607442
0.490973 -0.625861 0.500000 0.626350 0.371330
0.500000 0.707107 0.500000 0.681571 0.748702
0.587937 0.555570 0.587937 0.666748 0.703646
0.383820 -0.750223 0.392847 0.622273 0.299927
0.653281 0.382683 0.653281 0.655608 0.658172
0.261571 -0.842633 0.270598 0.638211 0.233275
0.693519 0.195090 0.693519 0.645934 0.613524
0.128922 -0.899539 0.137949 0.659461 0.165169
0.707106 0.000000 0.707106 0.638586 0.567519
0.137950 0.980785 0.137949 0.764163 0.881577
0.693519 -0.195090 0.693519 0.632600 0.520998
0.270598 0.923880 0.270598 0.726560 0.839394
0.653281 -0.382683 0.653281 0.628759 0.471840
0.392847 0.831470 0.392847 0.700745 0.794448
0.578910 -0.474324 0.587937 0.627611 0.429560
0.108386 0.980785 0.162211 0.756768 0.893993
0.099359 -0.899539 0.162211 0.651204 0.161567
0.555570 0.000000 0.831469 0.612311 0.565746
0.544895 -0.195090 0.815492 0.607839 0.514503
0.212607 0.923880 0.318189 0.712063 0.855507
0.513280 -0.382683 0.768177 0.605803 0.462866
0.308658 0.831470 0.461939 0.681238 0.810579
0.452912 -0.474324 0.691341 0.606043 0.420265
0.392847 0.707107 0.587937 0.658491 0.762751
0.383820 -0.625861 0.587937 0.607915 0.362600
0.461939 0.555570 0.691341 0.641603 0.713723
0.299631 -0.750223 0.461939 0.609628 0.296896
0.513280 0.382683 0.768177 0.629035 0.664821
0.203580 -0.842633 0.318189 0.626803 0.228987
0.544895 0.195090 0.815492 0.618840 0.616214
0.318189 0.555570 0.768177 0.616090 0.722914
0.203580 -0.750223 0.513279 0.596754 0.288453
0.353553 0.382683 0.853553 0.602539 0.669022
0.137419 -0.842633 0.353553 0.616354 0.221702
0.375330 0.195090 0.906127 0.592585 0.614824
0.065630 -0.899539 0.180240 0.643762 0.155993
0.382683 0.000000 0.923879 0.586349 0.560495
0.074658 0.980785 0.180240 0.750752 0.907179
0.375330 -0.195090 0.906127 0.582744 0.506295
0.146446 0.923880 0.353553 0.698622 0.872490
0.353553 -0.382683 0.853553 0.582753 0.451922
0.212607 0.831470 0.513280 0.662637 0.827143
0.309162 -0.474324 0.768177 0.584708 0.408146
0.270598 0.707107 0.653281 0.636284 0.775606
0.261571 -0.625861 0.653281 0.589930 0.350118
0.191341 -0.195090 0.961939 0.557551 0.494377
0.074658 0.923880 0.375330 0.686393 0.890283
0.180240 -0.382683 0.906127 0.559839 0.436469
0.108386 0.831470 0.544895 0.645329 0.844556
0.153184 -0.474324 0.815492 0.563701 0.391807
0.137950 0.707107 0.693520 0.614403 0.787785
0.128922 -0.625861 0.693520 0.572367 0.333763
0.162211 0.555570 0.815492 0.590813 0.730920
0.099359 -0.750223 0.544895 0.585033 0.272925
0.180240 0.382683 0.906127 0.575893 0.669269
0.065630 -0.842633 0.375330 0.607135 0.210130
0.191341 0.195090 0.961939 0.566355 0.609725
0.029033 -0.899539 0.191341 0.637197 0.148530
0.195090 0.000000 0.980785 0.560287 0.551605
0.038060 0.980785 0.191342 0.746434 0.920915
-0.009027 -0.625861 0.707106 0.556153 0.311339
-0.009027 -0.750223 0.555570 0.574672 0.251990
0.000000 0.382683 0.923879 0.548019 0.660875
-0.009027 -0.842633 0.382683 0.599090 0.194988
0.000000 0.195090 0.980784 0.539749 0.603722
-0.009027 -0.899539 0.195090 0.631564 0.139278
0.000000 0.000000 0.999999 0.533569 0.540725
0.000000 0.980785 0.195090 0.744102 0.934941
0.000000 -0.195090 0.980784 0.533575 0.474405
0.000000 0.923880 0.382683 0.675819 0.909586
0.000000 -0.382683 0.923879 0.537581 0.413258
0.000000 0.831470 0.555570 0.629016 0.861583
-0.009028 -0.474324 0.831469 0.543139 0.370621
0.000000 0.707107 0.707106 0.592522 0.800060
0.000000 0.555570 0.831469 0.565805 0.733344
0.546611 -0.840179 -0.136176 0.759054 0.213681
0.697231 -1.017936 -0.136176 0.723607 0.265912
0.697231 -1.017936 0.136814 0.716019 0.293314
0.798694 -0.931963 0.136814 0.727177 0.360776
0.648074 -0.754206 -0.136176 0.784978 0.335054
0.798694 -0.931963 -0.136176 0.738054 0.334641
0.697231 -1.017936 -0.751804 0.748446 0.273390
0.546611 -0.840179 -0.751804 0.760402 0.283069
0.798694 -0.931963 -0.751804 0.746229 0.289774
0.648074 -0.754206 -0.751804 0.757603 0.300077
0.798694 -0.931963 0.706960 0.707410 0.345409
0.546611 -0.840179 0.706960 0.692869 0.337437
0.697231 -1.017936 0.706960 0.701833 0.325635
3 0 1 2
3 3 4 5
3 6 7 8
3 5 9 10
3 6 11 12
3 10 13 14
3 12 15 16
3 14 17 18
3 19 20 21
3 22 16 15
3 18 23 24
3 19 25 26
3 27 23 28
3 26 29 30
3 27 31 32
3 3 29 33
3 32 7 34
3 17 35 23
3 25 36 37
3 23 38 28
3 29 37 39
3 28 40 31
3 33 39 41
3 31 42 7
3 4 41 43
3 7 44 8
3 4 45 9
3 8 46 11
3 13 45 47
3 15 46 48
3 17 47 49
3 21 20 36
3 22 15 48
3 42 50 44
3 43 51 45
3 44 52 46
3 47 51 53
3 46 54 48
3 49 53 55
3 36 20 56
3 22 48 54
3 49 57 35
3 37 56 58
3 35 59 38
3 39 58 60
3 38 61 40
3 39 62 41
3 40 63 42
3 43 62 64
3 58 65 66
3 57 67 59
3 58 68 60
3 59 69 61
3 62 68 70
3 63 69 71
3 64 70 72
3 50 71 73
3 64 74 51
3 52 73 75
3 53 74 76
3 54 75 77
3 55 76 78
3 56 20 65
3 22 54 77
3 55 79 57
3 72 80 74
3 75 81 82
3 76 80 83
3 75 84 77
3 78 83 85
3 65 20 86
3 22 77 84
3 78 87 79
3 66 86 88
3 79 89 67
3 66 90 68
3 67 91 69
3 70 90 92
3 69 93 71
3 70 94 72
3 71 81 73
3 87 95 89
3 88 96 90
3 89 97 91
3 92 96 98
3 91 99 93
3 94 98 100
3 81 99 101
3 94 102 80
3 82 101 103
3 83 102 104
3 82 105 84
3 83 106 85
3 86 20 107
3 22 84 105
3 85 108 87
3 88 107 109
3 103 110 111
3 104 112 113
3 103 114 105
3 104 115 106
3 107 20 116
3 22 105 114
3 108 115 117
3 109 116 118
3 108 119 95
3 109 120 96
3 95 121 97
3 96 122 98
3 97 123 99
3 100 122 124
3 101 123 110
3 100 112 102
3 119 125 121
3 120 126 122
3 123 125 127
3 122 128 124
3 124 129 112
3 111 130 131
3 113 129 132
3 111 133 114
3 113 134 115
3 116 20 135
3 22 114 133
3 117 134 136
3 116 137 118
3 117 138 119
3 118 139 120
3 133 140 141
3 132 142 134
3 135 20 143
3 22 133 141
3 136 142 144
3 137 143 145
3 136 146 138
3 137 147 139
3 125 146 148
3 126 147 149
3 125 150 127
3 126 151 128
3 128 152 129
3 130 140 131
3 132 152 153
3 147 154 149
3 150 155 156
3 149 157 151
3 150 158 159
3 151 160 152
3 159 161 140
3 153 160 162
3 140 163 141
3 142 162 164
3 143 20 165
3 22 141 163
3 142 166 144
3 143 167 145
3 144 168 146
3 145 169 147
3 148 168 155
3 164 170 171
3 165 20 172
3 22 163 173
3 164 174 166
3 165 175 167
3 166 176 168
3 169 175 177
3 155 176 178
3 154 177 179
3 156 178 180
3 154 181 157
3 156 182 158
3 157 183 160
3 161 182 184
3 162 183 170
3 161 173 163
3 178 185 180
3 181 186 187
3 180 188 182
3 181 189 183
3 184 188 190
3 170 189 191
3 184 192 173
3 170 193 171
3 172 20 194
3 22 173 192
3 171 195 174
3 175 194 196
3 174 197 176
3 175 198 177
3 178 197 199
3 179 198 186
3 194 20 200
3 22 192 201
3 193 202 195
3 194 203 196
3 195 204 197
3 196 205 198
3 199 204 206
3 186 205 207
3 199 208 185
3 187 207 209
3 185 210 188
3 187 211 189
3 190 210 212
3 191 211 213
3 192 212 201
3 193 213 214
3 209 215 216
3 208 217 210
3 209 218 211
3 212 217 219
3 213 218 220
3 201 219 221
3 213 222 214
3 200 20 223
3 22 201 221
3 202 222 224
3 203 223 225
3 202 226 204
3 203 227 205
3 206 226 228
3 207 227 215
3 206 229 208
3 224 230 231
3 223 232 225
3 224 233 226
3 225 234 227
3 228 233 235
3 215 234 236
3 228 237 229
3 215 238 216
3 229 239 217
3 216 240 218
3 217 241 219
3 220 240 242
3 221 241 243
3 220 230 222
3 223 20 244
3 22 221 243
3 239 245 246
3 238 247 240
3 241 246 248
3 242 247 249
3 243 248 250
3 230 249 251
3 244 20 252
3 22 243 250
3 230 253 231
3 232 252 254
3 231 255 233
3 232 256 234
3 235 255 257
3 234 258 236
3 235 245 237
3 238 258 259
3 127 150 0
3 130 260 159
3 260 0 159
3 159 0 150
3 261 260 130
3 260 262 263
3 264 265 0
3 127 0 265
3 123 127 265
3 110 123 265
3 110 261 130
3 265 261 110
3 266 263 262
3 262 267 268
3 267 269 268
3 265 267 261
3 266 270 265
3 262 269 266
3 271 2 1
3 260 271 1
3 0 272 264
3 264 271 263
3 273 274 275
3 276 277 278
3 279 280 281
3 278 282 283
3 279 284 285
3 286 282 287
3 288 284 289
3 286 290 291
3 292 293 294
3 295 288 289
3 296 290 297
3 292 298 299
3 296 300 301
3 299 302 303
3 301 304 305
3 303 306 276
3 305 280 307
3 290 308 297
3 294 309 298
3 297 310 300
3 298 311 302
3 300 312 304
3 302 313 306
3 304 314 280
3 306 315 277
3 280 316 281
3 277 317 282
3 284 316 318
3 287 317 319
3 284 320 289
3 290 319 321
3 294 293 322
3 295 289 320
3 314 323 316
3 315 324 317
3 316 325 318
3 319 324 326
3 318 327 320
3 321 326 328
3 322 293 329
3 295 320 327
3 321 330 308
3 309 329 331
3 308 332 310
3 309 333 311
3 310 334 312
3 311 335 313
3 312 336 314
3 315 335 337
3 329 338 331
3 330 339 332
3 333 338 340
3 332 341 334
3 333 342 335
3 336 341 343
3 337 342 344
3 323 343 345
3 337 346 324
3 325 345 347
3 326 346 348
3 327 347 349
3 328 348 350
3 329 293 351
3 295 327 349
3 328 352 330
3 344 353 346
3 345 354 347
3 348 353 355
3 347 356 349
3 348 357 350
3 351 293 358
3 295 349 356
3 350 359 352
3 351 360 338
3 352 361 339
3 338 362 340
3 339 363 341
3 340 364 342
3 341 365 343
3 344 364 366
3 343 367 345
3 359 368 361
3 362 369 370
3 361 371 363
3 364 370 372
3 363 373 365
3 366 372 374
3 365 375 367
3 366 376 353
3 354 375 377
3 355 376 378
3 356 377 379
3 355 380 357
3 358 293 381
3 295 356 379
3 359 380 382
3 358 369 360
3 377 383 384
3 378 385 386
3 377 387 379
3 378 388 380
3 381 293 389
3 295 379 387
3 382 388 390
3 369 389 391
3 382 392 368
3 369 393 370
3 368 394 371
3 372 393 395
3 371 396 373
3 374 395 397
3 373 383 375
3 374 385 376
3 392 398 394
3 395 399 400
3 396 398 401
3 395 402 397
3 397 403 385
3 384 404 405
3 386 403 406
3 384 407 387
3 386 408 388
3 389 293 409
3 295 387 407
3 390 408 410
3 389 411 391
3 390 412 392
3 393 411 399
3 407 413 414
3 406 415 408
3 409 293 416
3 295 407 414
3 410 415 417
3 409 418 411
3 410 419 412
3 411 420 399
3 398 419 421
3 400 420 422
3 398 423 401
3 402 422 424
3 402 425 403
3 404 413 405
3 406 425 426
3 420 427 422
3 421 428 423
3 422 429 424
3 423 430 431
3 424 432 425
3 413 430 433
3 426 432 434
3 414 433 435
3 426 436 415
3 416 293 437
3 295 414 435
3 417 436 438
3 416 439 418
3 417 440 419
3 418 441 420
3 421 440 442
3 434 443 436
3 437 293 444
3 295 435 445
3 438 443 446
3 437 447 439
3 438 448 440
3 439 449 441
3 442 448 450
3 441 451 427
3 442 452 428
3 429 451 453
3 428 454 430
3 429 455 432
3 430 456 433
3 434 455 457
3 433 445 435
3 450 458 452
3 453 459 460
3 452 461 454
3 453 462 455
3 456 461 463
3 457 462 464
3 456 465 445
3 443 464 466
3 444 293 467
3 295 445 465
3 443 468 446
3 447 467 469
3 446 470 448
3 449 469 471
3 450 470 472
3 449 459 451
3 467 293 473
3 295 465 474
3 468 475 476
3 467 477 469
3 468 478 470
3 469 479 471
3 472 478 480
3 471 481 459
3 472 482 458
3 460 481 483
3 458 484 461
3 460 485 462
3 461 486 463
3 464 485 487
3 463 474 465
3 466 487 475
3 481 488 483
3 482 489 484
3 483 490 485
3 486 489 491
3 487 490 492
3 486 493 474
3 487 494 475
3 473 293 495
3 295 474 493
3 475 496 476
3 473 497 477
3 476 498 478
3 477 499 479
3 480 498 500
3 479 501 481
3 480 502 482
3 494 503 496
3 495 504 497
3 496 505 498
3 497 506 499
3 500 505 507
3 499 508 501
3 500 509 502
3 501 510 488
3 489 509 511
3 488 512 490
3 491 511 513
3 492 512 514
3 491 515 493
3 492 516 494
3 495 293 517
3 295 493 515
3 511 518 519
3 510 520 512
3 511 521 513
3 512 522 514
3 513 523 515
3 514 524 516
3 517 293 525
3 295 515 523
3 503 524 526
3 517 527 504
3 503 528 505
3 506 527 529
3 507 528 530
3 506 531 508
3 507 518 509
3 510 531 532
3 401 423 275
3 404 273 431
3 273 275 431
3 431 275 423
3 533 273 404
3 273 534 535
3 536 537 275
3 401 275 537
3 396 401 537
3 383 396 537
3 383 533 404
3 537 533 383
3 538 535 534
3 533 539 534
3 540 541 539
3 537 540 533
3 538 542 537
3 534 541 538
3 543 544 545
3 273 545 544
3 275 543 536
3 535 543 545
3 0 260 1
3 3 33 4
3 6 34 7
3 5 4 9
3 6 8 11
3 10 9 13
3 12 11 15
3 14 13 17
3 18 17 23
3 19 21 25
3 27 24 23
3 26 25 29
3 27 28 31
3 3 30 29
3 32 31 7
3 17 49 35
3 25 21 36
3 23 35 38
3 29 25 37
3 28 38 40
3 33 29 39
3 31 40 42
3 4 33 41
3 7 42 44
3 4 43 45
3 8 44 46
3 13 9 45
3 15 11 46
3 17 13 47
3 42 63 50
3 43 64 51
3 44 50 52
3 47 45 51
3 46 52 54
3 49 47 53
3 49 55 57
3 37 36 56
3 35 57 59
3 39 37 58
3 38 59 61
3 39 60 62
3 40 61 63
3 43 41 62
3 58 56 65
3 57 79 67
3 58 66 68
3 59 67 69
3 62 60 68
3 63 61 69
3 64 62 70
3 50 63 71
3 64 72 74
3 52 50 73
3 53 51 74
3 54 52 75
3 55 53 76
3 55 78 79
3 72 94 80
3 75 73 81
3 76 74 80
3 75 82 84
3 78 76 83
3 78 85 87
3 66 65 86
3 79 87 89
3 66 88 90
3 67 89 91
3 70 68 90
3 69 91 93
3 70 92 94
3 71 93 81
3 87 108 95
3 88 109 96
3 89 95 97
3 92 90 96
3 91 97 99
3 94 92 98
3 81 93 99
3 94 100 102
3 82 81 101
3 83 80 102
3 82 103 105
3 83 104 106
3 85 106 108
3 88 86 107
3 103 101 110
3 104 102 112
3 103 111 114
3 104 113 115
3 108 106 115
3 109 107 116
3 108 117 119
3 109 118 120
3 95 119 121
3 96 120 122
3 97 121 123
3 100 98 122
3 101 99 123
3 100 124 112
3 119 138 125
3 120 139 126
3 123 121 125
3 122 126 128
3 124 128 129
3 111 110 130
3 113 112 129
3 111 131 133
3 113 132 134
3 117 115 134
3 116 135 137
3 117 136 138
3 118 137 139
3 133 131 140
3 132 153 142
3 136 134 142
3 137 135 143
3 136 144 146
3 137 145 147
3 125 138 146
3 126 139 147
3 125 148 150
3 126 149 151
3 128 151 152
3 130 159 140
3 132 129 152
3 147 169 154
3 150 148 155
3 149 154 157
3 150 156 158
3 151 157 160
3 159 158 161
3 153 152 160
3 140 161 163
3 142 153 162
3 142 164 166
3 143 165 167
3 144 166 168
3 145 167 169
3 148 146 168
3 164 162 170
3 164 171 174
3 165 172 175
3 166 174 176
3 169 167 175
3 155 168 176
3 154 169 177
3 156 155 178
3 154 179 181
3 156 180 182
3 157 181 183
3 161 158 182
3 162 160 183
3 161 184 173
3 178 199 185
3 181 179 186
3 180 185 188
3 181 187 189
3 184 182 188
3 170 183 189
3 184 190 192
3 170 191 193
3 171 193 195
3 175 172 194
3 174 195 197
3 175 196 198
3 178 176 197
3 179 177 198
3 193 214 202
3 194 200 203
3 195 202 204
3 196 203 205
3 199 197 204
3 186 198 205
3 199 206 208
3 187 186 207
3 185 208 210
3 187 209 211
3 190 188 210
3 191 189 211
3 192 190 212
3 193 191 213
3 209 207 215
3 208 229 217
3 209 216 218
3 212 210 217
3 213 211 218
3 201 212 219
3 213 220 222
3 202 214 222
3 203 200 223
3 202 224 226
3 203 225 227
3 206 204 226
3 207 205 227
3 206 228 229
3 224 222 230
3 223 244 232
3 224 231 233
3 225 232 234
3 228 226 233
3 215 227 234
3 228 235 237
3 215 236 238
3 229 237 239
3 216 238 240
3 217 239 241
3 220 218 240
3 221 219 241
3 220 242 230
3 239 237 245
3 238 259 247
3 241 239 246
3 242 240 247
3 243 241 248
3 230 242 249
3 230 251 253
3 232 244 252
3 231 253 255
3 232 254 256
3 235 233 255
3 234 256 258
3 235 257 245
3 238 236 258
3 260 261 262
3 264 266 265
3 266 264 263
3 262 261 267
3 267 270 269
3 265 270 267
3 266 269 270
3 262 268 269
3 271 272 2
3 260 263 271
3 0 2 272
3 264 272 271
3 273 544 274
3 276 306 277
3 279 307 280
3 278 277 282
3 279 281 284
3 286 283 282
3 288 285 284
3 286 287 290
3 296 291 290
3 292 294 298
3 296 297 300
3 299 298 302
3 301 300 304
3 303 302 306
3 305 304 280
3 290 321 308
3 294 322 309
3 297 308 310
3 298 309 311
3 300 310 312
3 302 311 313
3 304 312 314
3 306 313 315
3 280 314 316
3 277 315 317
3 284 281 316
3 287 282 317
3 284 318 320
3 290 287 319
3 314 336 323
3 315 337 324
3 316 323 325
3 319 317 324
3 318 325 327
3 321 319 326
3 321 328 330
3 309 322 329
3 308 330 332
3 309 331 333
3 310 332 334
3 311 333 335
3 312 334 336
3 315 313 335
3 329 351 338
3 330 352 339
3 333 331 338
3 332 339 341
3 333 340 342
3 336 334 341
3 337 335 342
3 323 336 343
3 337 344 346
3 325 323 345
3 326 324 346
3 327 325 347
3 328 326 348
3 328 350 352
3 344 366 353
3 345 367 354
3 348 346 353
3 347 354 356
3 348 355 357
3 350 357 359
3 351 358 360
3 352 359 361
3 338 360 362
3 339 361 363
3 340 362 364
3 341 363 365
3 344 342 364
3 343 365 367
3 359 382 368
3 362 360 369
3 361 368 371
3 364 362 370
3 363 371 373
3 366 364 372
3 365 373 375
3 366 374 376
3 354 367 375
3 355 353 376
3 356 354 377
3 355 378 380
3 359 357 380
3 358 381 369
3 377 375 383
3 378 376 385
3 377 384 387
3 378 386 388
3 382 380 388
3 369 381 389
3 382 390 392
3 369 391 393
3 368 392 394
3 372 370 393
3 371 394 396
3 374 372 395
3 373 396 383
3 374 397 385
3 392 412 398
3 395 393 399
3 396 394 398
3 395 400 402
3 397 402 403
3 384 383 404
3 386 385 403
3 384 405 407
3 386 406 408
3 390 388 408
3 389 409 411
3 390 410 412
3 393 391 411
3 407 405 413
3 406 426 415
3 410 408 415
3 409 416 418
3 410 417 419
3 411 418 420
3 398 412 419
3 400 399 420
3 398 421 423
3 402 400 422
3 402 424 425
3 404 431 413
3 406 403 425
3 420 441 427
3 421 442 428
3 422 427 429
3 423 428 430
3 424 429 432
3 413 431 430
3 426 425 432
3 414 413 433
3 426 434 436
3 417 415 436
3 416 437 439
3 417 438 440
3 418 439 441
3 421 419 440
3 434 457 443
3 438 436 443
3 437 444 447
3 438 446 448
3 439 447 449
3 442 440 448
3 441 449 451
3 442 450 452
3 429 427 451
3 428 452 454
3 429 453 455
3 430 454 456
3 434 432 455
3 433 456 445
3 450 472 458
3 453 451 459
3 452 458 461
3 453 460 462
3 456 454 461
3 457 455 462
3 456 463 465
3 443 457 464
3 443 466 468
3 447 444 467
3 446 468 470
3 449 447 469
3 450 448 470
3 449 471 459
3 468 466 475
3 467 473 477
3 468 476 478
3 469 477 479
3 472 470 478
3 471 479 481
3 472 480 482
3 460 459 481
3 458 482 484
3 460 483 485
3 461 484 486
3 464 462 485
3 463 486 474
3 466 464 487
3 481 501 488
3 482 502 489
3 483 488 490
3 486 484 489
3 487 485 490
3 486 491 493
3 487 492 494
3 475 494 496
3 473 495 497
3 476 496 498
3 477 497 499
3 480 478 498
3 479 499 501
3 480 500 502
3 494 516 503
3 495 517 504
3 496 503 505
3 497 504 506
3 500 498 505
3 499 506 508
3 500 507 509
3 501 508 510
3 489 502 509
3 488 510 512
3 491 489 511
3 492 490 512
3 491 513 515
3 492 514 516
3 511 509 518
3 510 532 520
3 511 519 521
3 512 520 522
3 513 521 523
3 514 522 524
3 503 516 524
3 517 525 527
3 503 526 528
3 506 504 527
3 507 505 528
3 506 529 531
3 507 530 518
3 510 508 531
3 273 533 534
3 536 538 537
3 538 536 535
3 533 540 539
3 540 542 541
3 537 542 540
3 538 541 542
3 534 539 541
3 543 274 544
3 273 535 545
3 275 274 543
3 535 536 543
